<svg width="71" height="73" viewBox="0 0 71 73" fill="none" xmlns="http://www.w3.org/2000/svg">
<path d="M46.2172 9.94372C47.3663 9.33717 48.7893 9.7452 49.4423 10.8685L59.1032 27.4863L70.565 42.3261C71.5641 43.6196 71.0218 45.511 69.4891 46.0786L51.9049 52.5896L34.906 61.5628C33.7569 62.1693 32.3339 61.7613 31.6809 60.638L22.02 44.0202L10.5581 29.1804C9.55907 27.8869 10.1014 25.9955 11.6341 25.428L29.2183 18.9169L46.2172 9.94372Z" fill="url(#paint0_linear_14_321)"/>
<path d="M30.0079 43.5726C29.9917 43.5434 29.9528 43.5076 29.8911 43.4654C29.8295 43.4231 29.7451 43.3743 29.6381 43.319L29.0247 43.1432C28.9727 43.1529 28.8786 43.1382 28.7423 43.0991C28.7261 43.0698 28.6872 43.0341 28.6255 42.9918C28.5866 42.9561 28.5363 42.9171 28.4747 42.8748L28.1241 42.8112C28.004 42.8013 27.9132 42.7753 27.8515 42.733C27.8061 42.72 27.772 42.7102 27.7493 42.7037C27.613 42.6646 27.5124 42.5866 27.4476 42.4697L27.5062 42.2652C27.5032 42.0185 27.5569 41.8741 27.6673 41.832C27.6511 41.8028 27.609 41.7784 27.5408 41.7588C27.5311 41.7069 27.5409 41.6728 27.5701 41.6566C27.6059 41.6177 27.627 41.5869 27.6335 41.5641L27.6969 41.4717C27.7165 41.4035 27.6711 41.3045 27.5608 41.1745C27.5869 41.0836 27.6925 41.0156 27.8776 40.9703L27.8873 40.9362C27.8095 40.8647 27.7576 40.7884 27.7317 40.7072C27.722 40.6553 27.7319 40.5352 27.7613 40.3469C27.7907 40.1587 27.8364 39.9136 27.8983 39.6118C27.7784 39.4298 27.751 39.2253 27.8161 38.9981C27.8357 38.93 27.9609 38.7077 28.1917 38.3314C28.1431 38.2437 28.0425 38.1657 27.89 38.0974C27.8576 38.0389 27.8593 37.9902 27.895 37.9513L28.1486 37.5814C28.1259 37.5749 28.1081 37.5084 28.0952 37.3817C28.0855 37.3298 28.0791 37.2665 28.0759 37.1918C28.0728 37.1172 28.0647 37.0165 28.0519 36.8899C28.0941 36.8283 28.1478 36.6838 28.213 36.4567C28.213 36.4567 28.1968 36.4274 28.1644 36.369C28.1774 36.3235 28.184 36.2148 28.1842 36.0427C28.2136 35.8545 28.2414 35.6289 28.2676 35.366C28.2938 35.103 28.3103 34.8742 28.3169 34.6794C28.3463 34.4912 28.3773 34.3402 28.4099 34.2267C28.4555 34.0676 28.5221 33.9638 28.6098 33.9152C28.6001 33.8633 28.5109 33.7885 28.3422 33.691C28.0696 33.6128 27.7823 33.6287 27.4803 33.7388L27.0168 34.7123C26.9875 34.7285 26.9469 34.7414 26.895 34.7511C26.8658 34.7673 26.8219 34.7916 26.7634 34.824L26.7439 34.8922C26.7374 34.9149 26.7244 34.9603 26.7048 35.0285C26.7145 35.0804 26.7209 35.1437 26.7241 35.2184C26.815 35.2445 26.9042 35.3192 26.9917 35.4427L26.8063 35.832C26.7153 35.978 26.6908 36.1062 26.7329 36.2167L26.4701 36.1044L26.3628 36.2212L26.426 36.3868C26.4681 36.4972 26.4826 36.5751 26.4696 36.6206L25.9477 37.5404L25.9326 37.9786C25.9131 38.0468 25.8854 38.1003 25.8497 38.1392L25.7327 38.2901C25.7228 38.4102 25.7065 38.553 25.6836 38.7185C25.6672 38.8614 25.6476 39.0155 25.6247 39.1811C25.6117 39.2265 25.5029 39.3059 25.2982 39.4194C25.0514 39.5944 24.9279 39.682 24.9279 39.682C24.9019 39.7728 24.9618 39.8638 25.1078 39.9548C25.2603 40.0231 25.3366 40.0573 25.3366 40.0573L24.7751 41.6296L24.6679 41.7464C24.6355 41.6879 24.5641 41.5937 24.4539 41.4637L24.2396 41.4392C24.165 41.4423 24.1049 41.4374 24.0595 41.4244L23.5972 41.1074C23.5972 41.1074 23.5452 41.1171 23.4413 41.1365C23.3374 41.1559 23.2741 41.1623 23.2514 41.1558C22.9496 41.0938 22.7451 41.0352 22.638 40.9799C22.5991 40.9442 22.5407 40.8906 22.4629 40.8191C22.3851 40.7476 22.2991 40.6615 22.2051 40.5607L22.1028 40.5314C21.9664 40.6644 21.8527 40.7178 21.7618 40.6918L21.3822 40.4723C21.353 40.4885 21.3156 40.4901 21.2702 40.4771C21.2248 40.464 21.1761 40.4624 21.1241 40.4721C20.9424 40.4199 20.8743 40.3144 20.9199 40.1553C21.0076 40.1067 21.1197 40.0159 21.2562 39.883C21.2465 39.831 21.2709 39.7028 21.3296 39.4984C21.3426 39.4529 21.3556 39.4075 21.3687 39.3621C21.4109 39.3004 21.4564 39.2274 21.5052 39.1431L21.6515 38.89C21.6581 38.8673 21.6711 38.8218 21.6906 38.7537C21.7102 38.6855 21.7249 38.5914 21.7347 38.4713L21.7838 38.0428C22.1127 36.9816 22.4186 36.172 22.7016 35.6139L22.8918 35.3365C22.9113 35.2683 22.9195 35.1969 22.9163 35.1223L22.9068 34.8983C22.9133 34.8755 22.9523 34.8253 23.0238 34.7474C22.9979 34.6662 23.024 34.5754 23.102 34.4748L23.3164 34.2413C23.323 34.2186 23.3327 34.1845 23.3458 34.139C23.3588 34.0936 23.367 34.0222 23.3703 33.9248L23.3901 33.5986C23.3966 33.5759 23.473 33.438 23.6194 33.1849C23.7657 32.9318 23.8535 32.7972 23.8827 32.781C23.8309 32.6186 23.8132 32.466 23.8296 32.3232C23.888 32.2908 23.9465 32.2584 24.005 32.226C24.0634 32.1936 24.1251 32.1498 24.1901 32.0947C24.2292 31.9584 24.2034 31.7912 24.1127 31.5931L25.3334 28.1077C25.3918 28.0753 25.4535 28.0315 25.5185 27.9764C25.6062 27.9278 25.6826 27.8759 25.7475 27.8208C25.7313 27.7916 25.6892 27.7672 25.621 27.7477L25.6947 27.105C25.7533 26.9005 25.807 26.7561 25.8558 26.6717L25.851 26.5597C25.8802 26.5435 25.9306 26.4965 26.0021 26.4187L26.0705 26.1801C26.0835 26.1347 26.0852 26.086 26.0755 26.0341C26.0885 25.9886 26.0983 25.9545 26.1048 25.9318C26.1925 25.8832 26.29 25.8005 26.3972 25.6838L26.3393 25.114L26.4566 24.7051C26.4988 24.6434 26.5557 24.5737 26.6272 24.4958C26.6987 24.418 26.7734 24.3288 26.8515 24.2282C26.858 24.2055 26.8499 24.1909 26.8271 24.1844C26.8337 24.1617 26.8402 24.1389 26.8467 24.1162C26.8662 24.0481 26.8971 23.9832 26.9394 23.9215C27.0044 23.8664 27.0613 23.7967 27.11 23.7123C27.0614 23.6246 27.0226 23.5029 26.9935 23.347L27.1546 22.9138C27.1807 22.8229 27.3399 22.6965 27.6322 22.5344C27.8953 22.3886 28.035 22.2443 28.0514 22.1014L27.4139 21.6236C27.4919 21.5231 27.5796 21.4745 27.677 21.4778L27.8727 20.5382C27.8371 20.405 27.8258 20.3158 27.8389 20.2703C28.0921 20.2446 28.2495 20.2529 28.3112 20.2951C28.3566 20.3082 28.4231 20.3764 28.5106 20.4998C28.5754 20.6168 28.6533 20.6883 28.7441 20.7143C28.8026 20.6819 28.8724 20.6528 28.9536 20.6269C29.0575 20.6075 29.1582 20.5995 29.2555 20.6028C29.2879 20.6613 29.3398 20.7376 29.4111 20.8318C29.5117 20.9098 29.609 20.9992 29.7031 21.0999L29.7762 20.9734L30.0343 20.9736C30.1674 20.938 30.2421 20.9349 30.2583 20.9641C30.3037 20.9771 30.3864 21.0746 30.5064 21.2565C30.6198 21.4611 30.6992 21.5699 30.7446 21.583C30.7901 21.596 30.9086 21.5685 31.1002 21.5005C31.2268 21.4877 31.3275 21.4796 31.4021 21.4765C31.4995 21.4798 31.5677 21.4994 31.6066 21.5351L31.7331 21.6083C31.7331 21.6083 31.7851 21.5986 31.889 21.5792C31.9474 21.5468 31.9994 21.5371 32.0448 21.5501C32.1357 21.5762 32.2281 21.7256 32.3219 21.9984C32.3674 22.0114 32.4372 21.9823 32.5314 21.9109C32.6191 21.8623 32.6711 21.8526 32.6873 21.8819L33.1641 22.2767C33.2095 22.2898 33.255 22.3028 33.3004 22.3158C33.3523 22.3061 33.4043 22.2964 33.4562 22.2868L33.568 22.5401L34.2543 22.8475C34.2705 22.8767 34.2867 22.906 34.3029 22.9352C34.3191 22.9644 34.3467 22.9969 34.3856 23.0327C34.7199 23.1531 34.9941 23.2686 35.2082 23.3792L35.7043 23.964C35.7043 23.964 35.714 24.0159 35.7334 24.1198L35.7236 24.1539C35.678 24.3129 35.7493 24.4932 35.9374 24.6946L36.3946 25.1576L36.3067 25.4643L36.3696 25.888C36.3078 26.0178 36.2314 26.1557 36.1403 26.3017C36.0558 26.425 35.968 26.5596 35.877 26.7056C35.8705 26.7284 35.8786 26.743 35.9013 26.7495L36.1206 26.628C36.2375 26.5631 36.33 26.5405 36.3982 26.56L36.4566 26.6137C36.4728 26.6429 36.4759 26.7176 36.4661 26.8377C36.4562 26.9578 36.4447 27.1266 36.4315 27.3441L36.4849 27.5438L36.3872 27.8845L36.2556 27.9574C36.2424 28.1749 36.2212 28.2918 36.192 28.308C36.1173 28.3112 36.0296 28.3598 35.9289 28.4538C35.9289 28.4538 35.9451 28.483 35.9775 28.5415C35.9937 28.5707 36.07 28.6049 36.2063 28.644L36.1867 28.7121C36.1737 28.7576 36.1184 28.8646 36.0209 29.0334L35.9868 29.0236C35.9641 29.0171 35.9072 29.0868 35.8162 29.2328C35.7251 29.3788 35.7023 29.4583 35.7478 29.4713C35.8159 29.4909 35.8792 29.4845 35.9377 29.452C35.9734 29.4131 36.0011 29.3596 36.0206 29.2914C36.0402 29.2233 36.0434 29.2119 36.0304 29.2574L35.8498 29.7587C35.8205 29.7749 35.7702 29.822 35.6987 29.8998C35.6726 29.9907 35.6254 30.1124 35.5571 30.2649C35.5115 30.4239 35.448 30.6024 35.3667 30.8003L35.1084 31.0582C35.0173 31.2042 34.9311 31.3761 34.8498 31.5741L34.8155 31.8224C34.7862 31.8386 34.7684 31.8581 34.7619 31.8808C34.7553 31.9035 34.7342 31.9343 34.6985 31.9732C34.5911 32.262 34.4269 32.4486 34.2061 32.5327L34.167 32.6691C34.154 32.7145 34.1264 32.768 34.0841 32.8297C34.0711 32.8751 34.0434 32.9286 34.0012 32.9903C33.8907 33.0324 33.5107 33.329 32.8609 33.8803L32.5151 33.9287C32.3592 33.9577 32.2391 34.0339 32.1545 34.1572C32.1901 34.2903 32.2046 34.4543 32.1979 34.649C32.1523 34.8081 32.0727 34.8713 31.9591 34.8387C31.8228 34.7996 31.7514 34.7914 31.7449 34.8142C31.7253 34.8823 31.7951 34.9392 31.9541 34.9848C32.0677 35.0174 32.1049 35.1018 32.0659 35.2381L31.9145 35.6373C31.4861 35.5882 31.2621 35.5977 31.2425 35.6658C31.2295 35.7113 31.455 35.8251 31.919 36.0073C31.8898 36.0235 31.8264 36.116 31.7289 36.2847L31.8699 36.4358L31.8301 37.3463L31.898 37.624C31.7064 37.692 31.5245 37.8119 31.3523 37.9838L31.3814 38.1396C31.4754 38.2404 31.5451 38.3833 31.5903 38.5683C31.6162 38.6495 31.6177 38.7729 31.5949 38.9384L31.7845 39.1772C31.7715 39.2226 31.7552 39.2794 31.7357 39.3476C31.7161 39.4157 31.708 39.4872 31.7111 39.5618C31.6754 39.6007 31.6315 39.7111 31.5793 39.8928C31.628 39.9805 31.636 40.0812 31.6034 40.1947L31.4566 40.964C31.4728 40.9932 31.4825 41.0452 31.4857 41.1198C31.4888 41.1945 31.4855 41.2919 31.4756 41.412C31.3295 41.493 31.2434 41.5789 31.2173 41.6698C31.1555 41.7996 31.1814 41.8808 31.295 41.9134C31.3177 41.9199 31.381 41.9134 31.4849 41.8941L31.3529 42.4831C31.3529 42.4831 31.3916 42.777 31.4689 43.3646C31.4851 43.3938 31.4769 43.4653 31.4444 43.5788C31.3727 43.8287 31.246 43.9276 31.0643 43.8755C30.8598 43.8169 30.7333 43.7437 30.6847 43.656C30.6426 43.5456 30.6102 43.4872 30.5874 43.4806C30.4478 43.5389 30.2546 43.5696 30.0079 43.5726ZM32.2235 23.1134C32.2592 23.0745 32.2609 23.0258 32.2285 22.9673C32.1961 22.9088 32.1507 22.8958 32.0922 22.9282C32.0792 22.9737 32.1229 23.0354 32.2235 23.1134ZM27.8843 23.7131L28.0499 23.6499C28.0564 23.6272 28.011 23.6142 27.9136 23.6108C27.8909 23.6043 27.8811 23.6384 27.8843 23.7131ZM28.215 24.1029C28.2767 24.1452 28.3546 24.1307 28.4488 24.0593C28.4164 24.0009 28.3888 23.9684 28.3661 23.9619C28.2979 23.9423 28.2476 23.9893 28.215 24.1029ZM34.441 26.1832C34.5027 26.2255 34.5806 26.211 34.6748 26.1396C34.6586 26.1104 34.6278 26.0893 34.5823 26.0762C34.5142 26.0567 34.4671 26.0924 34.441 26.1832ZM29.8057 30.9022L30.2149 30.7613L30.6774 30.8202L30.7506 30.6937L30.7508 30.4356C30.7801 30.4194 30.8239 30.3951 30.8824 30.3627C30.9635 30.3368 31.0593 30.3028 31.1698 30.2607C31.2185 30.1763 31.3095 30.1164 31.4426 30.0808C31.5078 29.8536 31.6363 29.534 31.8282 29.1219C31.8543 29.031 31.8868 28.9174 31.9259 28.7811C31.9877 28.6513 32.0528 28.5102 32.1211 28.3577C32.1569 28.3187 32.1926 28.2798 32.2283 28.2409C32.2706 28.1793 32.3161 28.1063 32.3649 28.0219L32.3358 27.8661C32.3165 27.7622 32.3068 27.7102 32.3068 27.7102C32.3036 27.6355 32.3183 27.5414 32.3509 27.4278C32.3704 27.3597 32.3932 27.2802 32.4193 27.1893C32.468 27.1049 32.5201 27.0092 32.5754 26.9021L32.7365 26.4689L32.756 26.4008C32.8211 26.1736 32.6477 25.964 32.2356 25.7721L31.8121 25.5769L31.4568 25.4013C31.3659 25.3752 31.2605 25.3573 31.1404 25.3474C31.0495 25.3214 30.944 25.3034 30.8239 25.2936C30.6746 25.2999 30.5203 25.3663 30.3611 25.4928L30.2977 25.5852C30.1516 25.6662 30.0395 25.757 29.9615 25.8576C29.955 25.8803 29.9533 25.929 29.9565 26.0037C29.9889 26.0621 30.0001 26.1514 29.9903 26.2715L30.0191 26.6854C29.9606 26.7179 29.8664 26.7892 29.7365 26.8994C29.6877 26.9838 29.6276 27.0649 29.5561 27.1427C29.5073 27.2271 29.4439 27.3195 29.3659 27.4201C29.3659 27.4201 29.3999 27.5159 29.4679 27.7075C29.5294 27.9218 29.5601 28.029 29.5601 28.029C29.5113 28.1133 29.4512 28.1944 29.3797 28.2723C29.3374 28.3339 29.2887 28.4183 29.2334 28.5253L29.0966 29.0024L28.8964 29.5719L28.8671 29.6742C28.8084 29.8786 28.8196 30.0539 28.9007 30.2001C28.9266 30.2813 28.9752 30.369 29.0465 30.4632C29.0692 30.4697 29.1358 30.4519 29.2462 30.4098C29.3339 30.3612 29.3891 30.3402 29.4118 30.3467C29.48 30.3662 29.5885 30.5449 29.7376 30.8826L29.8057 30.9022ZM33.2557 28.388C33.392 28.427 33.6226 28.3088 33.9475 28.0331C33.8988 27.9455 33.873 27.8643 33.8698 27.7896L33.5924 27.5994C33.5015 27.5734 33.3684 27.609 33.193 27.7062C33.1409 27.8879 33.1618 28.1152 33.2557 28.388ZM26.9021 27.2668C26.9638 27.3091 27.0417 27.2945 27.1359 27.2232C27.1035 27.1647 27.0759 27.1322 27.0532 27.1257C26.9851 27.1062 26.9347 27.1532 26.9021 27.2668ZM26.8403 30.8263C26.8695 30.8101 26.8907 30.7793 26.9037 30.7338C26.9232 30.6657 26.8876 30.6186 26.7967 30.5925C26.7544 30.6542 26.769 30.7321 26.8403 30.8263ZM29.3474 31.4715C29.3864 31.5072 29.4643 31.4927 29.5812 31.4278C29.565 31.3986 29.5228 31.3742 29.4547 31.3547C29.3865 31.3351 29.3508 31.3741 29.3474 31.4715ZM31.5905 33.2948L31.7123 33.2559C31.7253 33.2105 31.7237 33.1731 31.7075 33.1439L31.5905 33.2948ZM27.3838 32.7892C27.4195 32.7503 27.4212 32.7016 27.3888 32.6431C27.3791 32.5912 27.3304 32.5895 27.2427 32.6381C27.2232 32.7063 27.2702 32.7566 27.3838 32.7892ZM29.9002 33.9164C29.9619 33.9587 30.0219 33.9636 30.0804 33.9312C30.1096 33.915 30.1145 33.855 30.0952 33.7511C30.0497 33.738 29.9847 33.7932 29.9002 33.9164ZM30.8424 36.5468C30.8781 36.5079 30.8798 36.4592 30.8474 36.4007C30.8312 36.3715 30.7711 36.3666 30.6672 36.386C30.6477 36.4541 30.7061 36.5077 30.8424 36.5468ZM28.9898 38.8921C29.0352 38.9051 29.1131 38.8906 29.2235 38.8485C29.3274 38.8291 29.3907 38.8227 29.4135 38.8292L29.4475 38.839L29.5648 38.4301L29.1852 38.2106C29.1526 38.3242 29.1444 38.3956 29.1606 38.4248C29.1606 38.4248 29.1265 38.5011 29.0582 38.6536C29.0224 38.6925 28.9915 38.7574 28.9655 38.8483C28.9589 38.871 28.967 38.8856 28.9898 38.8921ZM23.206 37.7131C23.3619 37.684 23.4496 37.6354 23.4691 37.5672C23.4952 37.4764 23.4384 37.3741 23.299 37.2603L23.0654 37.0458L22.9777 37.0944C22.9971 37.1983 23.0279 37.3055 23.0699 37.4159C23.1186 37.5036 23.1639 37.6027 23.206 37.7131ZM22.4787 39.6066C22.5144 39.5677 22.5161 39.519 22.4837 39.4605C22.474 39.4086 22.4253 39.4069 22.3376 39.4555C22.318 39.5237 22.3651 39.574 22.4787 39.6066ZM23.3697 39.7146L23.2674 39.6853C23.2836 39.7145 23.3014 39.7811 23.3208 39.8849L23.3697 39.7146ZM41.5125 46.8715L41.2692 46.6911C40.9869 46.561 40.724 46.4487 40.4807 46.3544C40.2535 46.2892 40.0523 46.2192 39.8771 46.1444L39.5849 46.1344L38.8257 45.6954L38.4897 45.7097L37.5746 45.2998L37.0537 45.1873C37.0083 45.1743 36.9596 45.1726 36.9076 45.1823L36.7615 45.1773L35.389 44.5624L35.1309 44.5622C35.092 44.5264 35.0303 44.4842 34.946 44.4354C34.8843 44.3931 34.8113 44.3476 34.727 44.2988L34.6052 44.3377C34.5663 44.3019 34.4559 44.258 34.2742 44.2059L34.1963 44.2204L33.5829 44.0445C33.2421 43.9468 33.1612 43.7146 33.3401 43.348L33.5353 42.9245C33.6036 42.772 33.6508 42.6503 33.6768 42.5595C33.7094 42.4459 33.7355 42.355 33.755 42.2868C33.7907 42.2479 33.8525 42.2042 33.9402 42.1555C34.0344 42.0842 34.1773 42.0146 34.3689 41.9466L34.3884 41.8784L34.0672 41.7126L34.0722 41.5665C34.1178 41.4075 34.1991 41.2955 34.316 41.2307C34.5044 41.0881 34.6295 40.9518 34.6913 40.822C34.5842 40.7668 34.5308 40.6531 34.531 40.481L34.5362 40.0769C34.5362 40.0769 34.6469 39.7767 34.8682 39.1763L35.0774 39.347C35.1066 39.3308 35.1375 39.2659 35.1701 39.1523L35.2287 38.9478C35.1801 38.8601 35.1429 38.7757 35.117 38.6945L35.1025 38.6166C35.1155 38.5711 35.1643 38.4868 35.2488 38.3635C35.3333 38.2402 35.3756 38.1786 35.3756 38.1786C35.4016 38.0877 35.379 37.9952 35.3077 37.901C35.3337 37.8101 35.389 37.703 35.4735 37.5797C35.4735 37.5797 35.4606 37.5392 35.4347 37.458C35.4542 37.3898 35.4754 37.359 35.4981 37.3655C35.5079 37.2454 35.5551 37.1237 35.6396 37.0004C35.7404 36.9064 35.7907 36.8594 35.7907 36.8594L35.8203 36.4991C35.8301 36.379 35.8302 36.2929 35.8205 36.241C35.8173 36.1663 35.819 36.1176 35.8255 36.0949C35.8386 36.0495 35.9035 35.9943 36.0205 35.9295C36.1374 35.8647 36.2024 35.8096 36.2154 35.7642C36.2154 35.7642 36.2122 35.6895 36.2059 35.5402C36.1573 35.4525 36.1362 35.3973 36.1427 35.3745L36.4792 34.8441C36.3787 34.7661 36.395 34.6233 36.5283 34.4156L36.7478 34.036C36.7577 33.9159 36.761 33.8185 36.7578 33.7439C36.7774 33.6757 36.7937 33.6189 36.8067 33.5735L37.0116 33.1159L37.2504 32.9263C37.2407 32.8743 37.2327 32.7737 37.2264 32.6243L37.4168 32.0889C37.3877 31.933 37.3764 31.8438 37.383 31.821L37.8217 31.3199C37.8217 31.3199 37.8136 31.3053 37.7974 31.2761C37.8039 31.2533 37.8023 31.216 37.7926 31.1641C37.8122 31.0959 37.835 31.0164 37.861 30.9255C37.9163 30.8184 37.9781 30.6886 38.0464 30.5361L38.0955 30.1077C38.1117 30.1369 38.1833 29.973 38.3102 29.6161L38.3007 29.3921C38.291 29.3401 38.2781 29.2995 38.2619 29.2703C38.2684 29.2476 38.2749 29.2249 38.2814 29.2021C38.3172 29.1632 38.3529 29.1243 38.3887 29.0854C38.4244 29.0465 38.4521 28.9929 38.4716 28.9248L38.8427 27.8879L39.6777 25.3615C39.8695 25.1214 39.9817 24.9446 40.0142 24.831L40.029 24.6509C40.042 24.6055 40.0405 24.5681 40.0243 24.5389C40.0081 24.5097 40.0032 24.4837 40.0097 24.461L40.0929 24.0423C40.1059 23.9968 40.1872 23.8849 40.3367 23.7065C40.421 23.7553 40.5168 23.8073 40.6238 23.8626C40.7374 23.8952 40.8445 23.9505 40.9451 24.0285C40.9937 24.1162 41.0764 24.2136 41.1931 24.3209C41.2158 24.3274 41.2743 24.295 41.3685 24.2237C41.4562 24.175 41.5228 24.1573 41.5682 24.1703L41.7336 24.3652C41.8438 24.4952 42.0288 24.622 42.2883 24.7456C42.3598 24.6677 42.4248 24.6126 42.4833 24.5802L42.7657 24.6243C42.863 24.6276 42.9458 24.6391 43.014 24.6586L43.121 24.7999C43.1534 24.8584 43.2183 24.8893 43.3157 24.8926L43.676 24.9222C43.7733 24.9255 43.8448 24.9337 43.8902 24.9467C43.9356 24.9598 43.9697 24.9695 43.9924 24.976L44.5569 25.3223C44.6089 25.3126 44.6576 25.3143 44.703 25.3273C44.7777 25.3241 44.8637 25.3242 44.9611 25.3276L45.2483 25.4837C45.2449 25.581 45.3 25.646 45.4136 25.6786C45.4363 25.6851 45.5029 25.6673 45.6133 25.6252C45.7303 25.5604 45.7936 25.554 45.8032 25.6059C45.8032 25.6059 45.8649 25.6482 45.9882 25.7327C46.0466 25.7003 46.1132 25.6825 46.1879 25.6793L46.4069 25.8159C46.4458 25.8516 46.4733 25.8841 46.4895 25.9134C46.5285 25.9491 46.5593 25.9702 46.582 25.9767L46.7622 25.9915C46.7491 26.037 46.7653 26.1522 46.8105 26.3373C46.8755 26.2822 46.9016 26.1913 46.8887 26.0647L47.1906 26.0406C47.2295 26.0764 47.2879 26.13 47.3658 26.2015C47.4436 26.273 47.5328 26.3477 47.6334 26.4257C47.6203 26.4712 47.6381 26.5377 47.6867 26.6254L47.789 26.6547L48.0618 26.4748C48.1138 26.4652 48.1738 26.4701 48.242 26.4896C48.3329 26.5157 48.427 26.5304 48.5244 26.5337L48.7531 26.6362L48.3137 27.9116C48.174 27.9699 48.0879 28.0558 48.0554 28.1694L48.0113 28.4518L47.4741 30.0679C47.4285 30.2269 47.2807 30.2706 47.0308 30.199C46.9822 30.1113 46.9271 30.0463 46.8655 30.004C46.7811 29.9553 46.6594 29.9081 46.5004 29.8625C46.3479 29.7942 46.1661 29.742 45.9552 29.7061C45.9097 29.6931 45.8529 29.6768 45.7848 29.6573C45.7231 29.615 45.6388 29.5662 45.5317 29.511L45.2348 29.3889L44.67 29.3007L44.1005 29.1006C44.0551 29.0875 44.0129 29.0631 43.974 29.0274L43.8474 28.9542C43.6722 28.8794 43.5278 28.8257 43.4142 28.7931C43.3233 28.7671 43.2665 28.7508 43.2438 28.7443C43.1725 28.6501 43.0914 28.5899 43.0005 28.5639C42.9551 28.5508 42.8625 28.5735 42.7229 28.6318C42.5832 28.6901 42.4907 28.7127 42.4453 28.6997C42.4257 28.7678 42.4013 28.81 42.3721 28.8262L42.3573 29.0064C42.367 29.0583 42.3621 29.1184 42.3425 29.1865C42.3295 29.232 42.3213 29.3034 42.318 29.4008C42.0648 29.4265 41.8454 29.7201 41.6598 30.2815L41.7863 30.3547L42.0249 30.4231C42.0411 30.4523 42.0361 30.5123 42.0101 30.6032C41.984 30.6941 41.9125 30.7719 41.7956 30.8367C41.6494 30.9178 41.5764 30.9583 41.5764 30.9583C41.6086 31.1888 41.6035 31.4209 41.5611 31.6546C41.5481 31.7 41.4733 31.7892 41.3368 31.9222C41.2004 32.0552 41.1158 32.1784 41.0833 32.292L41.0444 32.1703L40.9227 32.2091L40.8933 32.3113C40.9258 32.3698 41.0101 32.4186 41.1464 32.4576C41.1334 32.5031 41.1171 32.5599 41.0976 32.628C41.1072 32.68 41.1137 32.7433 41.1169 32.818C41.1783 33.0323 41.2545 33.1525 41.3454 33.1785L41.6132 33.1447C41.6294 33.1739 41.6618 33.2324 41.7104 33.3201C41.7883 33.3916 41.8386 33.4306 41.8613 33.4371C41.8451 33.4079 41.9555 33.3658 42.1925 33.3108C42.3905 33.3921 42.5414 33.4231 42.6453 33.4037C42.7587 33.6084 42.8495 33.7205 42.9177 33.74L43.054 33.7791L43.3218 33.7452C43.3445 33.7518 43.3819 33.7502 43.4338 33.7405C43.4858 33.7308 43.5377 33.7211 43.5897 33.7114L43.8137 33.7019C43.8818 33.7214 43.9483 33.7897 44.0131 33.9066C44.0941 34.0528 44.146 34.1291 44.1687 34.1356C44.2499 34.1097 44.3619 34.105 44.5047 34.1213C44.5047 34.1213 44.4982 34.144 44.4852 34.1895C44.5014 34.2187 44.4997 34.2674 44.4802 34.3356C44.4541 34.4264 44.4037 34.5595 44.3289 34.7347C44.2833 34.8937 44.2133 35.0949 44.1189 35.3383L44.0117 35.4551C44.0148 35.5297 43.9806 35.692 43.9089 35.9419C43.8732 35.9808 43.8277 36.0538 43.7724 36.1609C43.7171 36.268 43.6829 36.3442 43.6699 36.3897L43.6504 36.4578C43.6373 36.5033 43.6275 36.6234 43.6208 36.8181L43.5817 36.9544C43.5361 37.1135 43.4516 37.2368 43.3282 37.3243C43.0358 37.4863 42.867 37.5608 42.8215 37.5478L42.5441 37.3576C42.4987 37.3446 42.4387 37.3397 42.364 37.3428L42.1498 37.3183C42.1173 37.2598 42.0703 37.2095 42.0087 37.1672C41.9763 37.1087 41.9179 37.0551 41.8335 37.0063C41.7816 37.016 41.7183 37.0225 41.6436 37.0256C41.5982 37.0126 41.5268 37.0044 41.4294 37.0011L41.0839 36.7914C40.8762 36.6581 40.7383 36.5817 40.6702 36.5621L40.3099 36.5326C40.2644 36.5195 40.2304 36.4237 40.2079 36.2452C40.3053 36.2485 40.3783 36.208 40.4271 36.1236L40.4612 36.1334C40.5066 36.1464 40.5748 36.166 40.6657 36.192C40.7565 36.2181 40.8441 36.2555 40.9285 36.3043L41.0017 36.1778L41.0212 36.1096C41.0407 36.0414 41.0181 35.9489 40.9533 35.832C40.9306 35.8255 40.8851 35.8124 40.817 35.7929C40.7781 35.7571 40.7164 35.7149 40.6321 35.6661C40.5736 35.6985 40.5248 35.7829 40.4857 35.9192C40.4241 35.8769 40.3397 35.9142 40.2324 36.0309C40.2 35.9725 40.1107 35.9837 39.9646 36.0648L39.8962 36.3033C39.8377 36.3357 39.7695 36.4022 39.6915 36.5028C39.5129 36.5253 39.4073 36.5934 39.3748 36.707C39.3748 36.707 39.391 36.7362 39.4234 36.7947C39.4396 36.8239 39.4412 36.8612 39.4281 36.9067L39.3891 37.043C39.3695 37.1111 39.35 37.1793 39.3304 37.2474C39.3109 37.3156 39.2735 37.4032 39.2182 37.5103L39.2813 37.6759C39.1968 37.7992 38.945 38.0343 38.5259 38.3812L38.5063 38.4494C38.4803 38.5403 38.4916 38.6296 38.5402 38.7172C38.6247 38.594 38.792 38.4821 39.042 38.3817C39.1003 38.5214 39.1132 38.648 39.0806 38.7616C39.0741 38.7843 38.8987 38.8815 38.5545 39.0533L38.6224 39.3309L38.7684 39.3359C38.8593 39.3619 38.8852 39.4431 38.8461 39.5794C38.7877 39.6118 38.7048 39.6864 38.5976 39.8032C38.5261 39.881 38.4773 39.9654 38.4512 40.0563L38.5242 40.1878C38.5177 40.2105 38.4072 40.3386 38.1927 40.5722L38.2167 40.8741C38.1842 40.9877 38.0851 41.033 37.9196 41.0102C37.9358 41.0394 37.9893 41.067 38.0802 41.0931L38.0849 41.2051C37.9973 41.2537 37.9323 41.3088 37.89 41.3705C37.8964 41.5198 37.9531 41.6221 38.0601 41.6774C38.1737 41.71 38.2614 41.7474 38.323 41.7897C38.5112 41.819 38.6962 41.8598 38.878 41.9119C39.0597 41.964 39.2528 42.0194 39.4573 42.078C39.454 42.1754 39.4977 42.2371 39.5886 42.2632C39.634 42.2762 39.7656 42.2033 39.9832 42.0444C40.1195 42.0835 40.1746 42.2345 40.1484 42.4975L40.2506 42.5268C40.2701 42.4586 40.2978 42.4051 40.3335 42.3662C40.5121 42.3436 40.7571 42.3893 41.0687 42.5032L41.4287 42.7908C41.4222 42.8136 41.5098 42.851 41.6916 42.9031C41.7824 42.9291 41.836 42.9568 41.8522 42.986L42.3245 43.0108C42.3927 43.0304 42.456 43.0239 42.5144 42.9915C42.5437 42.9753 42.6264 42.9868 42.7627 43.0258C42.9314 43.1234 42.9832 43.2858 42.9181 43.5129C42.892 43.6038 42.7896 43.8326 42.6107 44.1992C42.6107 44.1992 42.5814 44.2154 42.523 44.2478C42.4872 44.2868 42.4628 44.3289 42.4498 44.3744L42.2055 45.2263C42.2055 45.2263 42.1309 45.2295 41.9815 45.2358C42.0493 45.5995 42.0539 45.8835 41.9953 46.088C41.9627 46.2016 41.862 46.2956 41.6931 46.3701L41.6683 46.8424C41.5644 46.8618 41.5125 46.8715 41.5125 46.8715ZM47.1353 27.9056L47.1694 27.9153C47.3057 27.9544 47.4421 27.9075 47.5785 27.7745C47.5364 27.6641 47.4927 27.6024 47.4472 27.5894L46.9699 27.7106C47.012 27.821 47.0671 27.886 47.1353 27.9056ZM46.3167 28.4453C46.3232 28.4226 46.3022 28.3674 46.2536 28.2797C46.2536 28.2797 46.2243 28.2959 46.1659 28.3283L46.3167 28.4453ZM40.898 27.4078L41.1759 27.0818L41.025 26.9648L40.9181 26.8235C40.7557 26.8753 40.6517 26.9807 40.6061 27.1397C40.7164 27.2697 40.8137 27.359 40.898 27.4078ZM39.3035 29.7534C39.3165 29.7079 39.3182 29.6592 39.3085 29.6073C39.3215 29.5618 39.3232 29.5132 39.3135 29.4612L39.075 29.3928L39.0018 29.5193L39.1088 29.6607L39.3035 29.7534ZM37.3391 31.8453C37.3521 31.7999 37.3667 31.7918 37.383 31.821L37.3391 31.8453ZM38.9643 33.1227C39.13 32.9735 39.1463 32.8307 39.0134 32.6942C38.9841 32.7104 38.9305 32.7688 38.8525 32.8694C38.833 32.9375 38.8702 33.022 38.9643 33.1227ZM38.039 33.263L38.2196 32.7616L38.1467 32.6301L37.9081 32.5617L37.8448 32.6541C37.8448 32.6541 37.8593 32.7321 37.8884 32.8879C37.9273 32.9237 37.9077 32.9918 37.8297 33.0924C37.8979 33.1119 37.9676 33.1688 38.039 33.263ZM38.2279 34.276C38.2409 34.2306 38.2572 34.1738 38.2768 34.1056C38.2963 34.0375 38.3272 33.9726 38.3695 33.911C38.3467 33.9044 38.2915 33.9255 38.2038 33.9741C38.1843 34.0423 38.1923 34.1429 38.2279 34.276ZM42.3366 35.3804L42.3707 35.3902C42.4162 35.4032 42.5363 35.4131 42.731 35.4198L42.6095 35.2005C42.5836 35.1193 42.4976 35.1193 42.3514 35.2003C42.3254 35.2912 42.3204 35.3512 42.3366 35.3804ZM38.0248 37.9425C38.054 37.9263 38.0443 37.8744 37.9957 37.7867C37.9502 37.7736 37.9129 37.7752 37.8837 37.7914L38.0248 37.9425ZM37.6098 39.0037C37.6553 39.0167 37.7527 39.02 37.902 39.0137L37.8779 38.7117C37.7806 38.7084 37.7221 38.7408 37.7025 38.809L37.6098 39.0037ZM36.0416 39.3284C36.0546 39.283 36.0709 39.2262 36.0904 39.158C36.11 39.0899 36.1376 39.0363 36.1734 38.9974C36.1572 38.9682 36.1052 38.9779 36.0175 39.0265L36.0416 39.3284ZM35.8607 40.0879C35.8964 40.049 35.8981 40.0003 35.8657 39.9418C35.8333 39.8833 35.7765 39.867 35.6953 39.8929C35.705 39.9449 35.7601 40.0099 35.8607 40.0879ZM34.9825 41.8644C35.0767 41.793 35.1141 41.7054 35.0947 41.6015L34.9584 41.5625L34.8317 41.7474C34.8641 41.8058 34.9143 41.8448 34.9825 41.8644ZM39.6495 44.7515C39.6626 44.7061 39.6529 44.6541 39.6205 44.5957C39.6043 44.5664 39.5556 44.5648 39.4744 44.5907C39.4548 44.6588 39.5132 44.7124 39.6495 44.7515ZM39.5368 45.5305L40.1795 45.6042L40.1456 45.3363C40.1328 45.2097 40.0582 45.1269 39.9219 45.0878L39.5859 45.1021C39.5663 45.1702 39.5468 45.2384 39.5273 45.3065C39.5304 45.3812 39.5336 45.4559 39.5368 45.5305ZM47.9148 48.6705L47.7056 48.4998C47.5693 48.4608 47.459 48.4168 47.3746 48.368L47.1023 48.0318C46.9659 47.9927 46.8848 48.0186 46.8587 48.1095C46.8164 48.1711 46.7612 48.1922 46.6931 48.1726L46.4596 47.9581C46.453 47.9809 46.3897 47.9873 46.2696 47.9774C46.234 47.8443 46.1611 47.7128 46.0509 47.5828C46.0509 47.5828 45.9876 47.5892 45.861 47.6021C45.7831 47.5306 45.6761 47.3893 45.54 47.1782L45.3212 46.7835L45.0729 46.7492C45.0632 46.6973 45.0454 46.6307 45.0195 46.5495C45.0002 46.4456 44.9808 46.3417 44.9614 46.2378C44.9744 46.1924 44.9258 46.1047 44.8156 45.9747L44.8063 45.4926C44.8128 45.4699 44.7853 45.4374 44.7236 45.3952C44.6944 45.4114 44.6457 45.4097 44.5775 45.3902C44.5321 45.3771 44.4964 45.33 44.4705 45.2488L44.5054 44.4844C44.5087 44.387 44.5088 44.301 44.5056 44.2263C44.5317 44.1354 44.5512 44.0673 44.5642 44.0218L44.5011 43.8562C44.5141 43.8108 44.5223 43.7394 44.5256 43.642C44.529 43.5446 44.5388 43.4245 44.5552 43.2817L44.6043 42.8532C44.6922 42.6326 44.7459 42.4881 44.7654 42.42C44.7849 42.3518 44.7996 42.3437 44.8093 42.3957L45.121 42.3375C45.0431 42.2661 44.9815 42.2238 44.936 42.2108L45.0483 41.9479L44.9268 41.7287C44.9366 41.6086 44.9465 41.4885 44.9563 41.3684C44.9954 41.2321 45.0393 41.1217 45.0881 41.0374L45.1613 40.9108L45.3317 40.9597C45.4324 40.8657 45.5023 40.7505 45.5414 40.6142L45.3419 40.4095C45.3615 40.3413 45.3843 40.2618 45.4103 40.1709C45.4364 40.0801 45.4511 39.9859 45.4544 39.8885C45.5358 39.6906 45.6106 39.5154 45.6789 39.3629C45.7472 39.2103 45.8058 39.0919 45.8545 39.0076C45.8903 38.9686 45.9959 38.9006 46.1712 38.8033C46.1226 38.7156 46.0675 38.6507 46.0059 38.6084L46.0547 38.438C46.1424 38.3894 46.2074 38.3343 46.2497 38.2727C46.3277 38.1721 46.4252 38.0034 46.5423 37.7665C46.5715 37.7503 46.643 37.7585 46.7565 37.7911L46.9853 37.8935C46.9853 37.8935 47.0145 37.8773 47.073 37.8449L47.0051 37.5673C46.9597 37.5543 46.9223 37.5559 46.8931 37.5721C46.7957 37.5687 46.7226 37.6092 46.6739 37.6936C46.4986 37.6188 46.4436 37.4678 46.5087 37.2406L46.9091 36.1015C47.0748 35.9523 47.1902 35.7642 47.2554 35.537L47.2606 35.1328C47.2964 35.0939 47.324 35.0404 47.3436 34.9722C47.3696 34.8813 47.407 34.7937 47.4558 34.7094L47.7334 34.6415C47.688 34.6284 47.6458 34.6041 47.6069 34.5683L47.7778 34.101C47.8005 34.1075 47.833 34.08 47.8752 34.0183C47.8818 33.9956 47.8364 33.8965 47.7392 33.7212L48.2027 32.7477C48.2904 32.6991 48.3554 32.644 48.3976 32.5823C48.4887 32.4363 48.578 32.339 48.6657 32.2904C48.7827 32.2256 48.8509 32.1591 48.8704 32.091L48.8559 32.013C48.8624 31.9903 48.8787 31.9335 48.9048 31.8427C48.9308 31.7518 48.978 31.6301 49.0463 31.4776C49.0659 31.4094 49.074 31.338 49.0709 31.2634C49.0969 31.1725 49.123 31.0816 49.149 30.9907C49.2468 30.65 49.4079 30.2168 49.6324 29.6911C49.6551 29.6976 49.6907 29.7447 49.7393 29.8324L49.8075 29.8519C49.8302 29.8584 49.8481 29.839 49.8611 29.7935L49.8614 29.5355L49.8714 29.2433C49.8974 29.1524 49.9576 29.0713 50.0518 29C50.1557 28.9806 50.2661 28.9385 50.383 28.8737L50.6659 28.4017C50.7601 28.3303 50.9485 28.2737 51.2309 28.2318C51.1918 28.3681 51.2291 28.4525 51.3427 28.4851L51.4108 28.5046C51.5244 28.5372 51.6008 28.4853 51.6398 28.349L51.6353 27.9789L52.3612 27.6339L52.405 27.6096C52.4505 27.6226 52.5769 27.7818 52.7844 28.0872L52.8283 28.0629C52.8867 28.0305 52.9225 27.9915 52.9355 27.9461C52.9811 27.7871 52.9747 27.7238 52.9162 27.7562L53.0089 27.5615L53.4178 27.6787L53.6857 27.6449C53.8123 27.632 53.8837 27.6402 53.8999 27.6695L54.0507 27.7865C54.0442 27.8092 54.0345 27.8433 54.0214 27.8887C54.0084 27.9341 53.9775 27.999 53.9287 28.0834L54.0212 28.1468C54.1121 28.1728 54.1819 28.1437 54.2307 28.0593L54.2991 27.8208C54.3121 27.7754 54.3137 27.7267 54.3041 27.6747C54.3171 27.6293 54.3269 27.5952 54.3334 27.5725C54.4665 27.5369 54.598 27.55 54.7278 27.6118L55.0392 27.8118L55.3995 27.8413L55.7258 27.8611C55.7939 27.8806 55.8945 27.9587 56.0274 28.0951C56.0209 28.1178 56.0858 28.1487 56.2221 28.1878L56.631 28.3051L57.0107 28.5246C57.0269 28.5538 57.0431 28.583 57.0593 28.6123C57.0755 28.6415 57.103 28.674 57.1419 28.7097L57.288 28.7147L57.3903 28.7441C57.5266 28.7831 57.6935 29.0154 57.8911 29.4409L58.2026 29.6408C58.235 29.6993 58.2642 29.7691 58.29 29.8503C58.4685 29.9998 58.5657 30.1752 58.5817 30.3765C58.5979 30.4057 58.5767 30.5225 58.5181 30.727C58.5179 30.899 58.5616 31.0468 58.6491 31.1702C58.6653 31.1995 58.701 31.2466 58.7561 31.3115C58.8112 31.3765 58.9004 31.4513 59.0237 31.5358C59.1014 31.7793 59.1159 31.9433 59.0671 32.0276C59.0606 32.0504 58.9502 32.0925 58.7358 32.1539C58.5215 32.2154 58.4111 32.2575 58.4046 32.2802C58.3916 32.3257 58.3834 32.3971 58.38 32.4945C58.3832 32.5691 58.4205 32.6536 58.4918 32.7478L58.6717 33.0206C58.6944 33.0272 58.7025 33.0418 58.696 33.0645C58.7284 33.1229 58.7349 33.1863 58.7153 33.2544L58.8321 33.3616L58.6705 34.311L58.0797 35.9856C58.0505 36.0018 58.0212 36.018 57.992 36.0342C57.9628 36.0504 57.9303 36.0779 57.8945 36.1169C57.8685 36.2077 57.8278 36.3067 57.7725 36.4138C57.7399 36.5274 57.6895 36.6604 57.6212 36.8129L57.5139 36.9297L57.2852 36.8272C57.2105 36.8304 57.0937 36.8092 56.9346 36.7636C56.8892 36.7505 56.8081 36.6904 56.6913 36.5832C56.5746 36.4759 56.4935 36.4158 56.448 36.4028C56.2825 36.3799 56.1023 36.3651 55.9076 36.3584C55.7193 36.329 55.5197 36.2964 55.3087 36.2605C55.2601 36.1728 55.205 36.1078 55.1433 36.0655C55.0914 36.0752 54.9973 36.0605 54.861 36.0214L54.2087 35.7238C54.1277 35.5776 54.1068 35.4364 54.1458 35.3001C54.1654 35.2319 54.2661 35.1379 54.448 35.0179L54.4628 34.8378C54.492 34.8216 54.5132 34.7908 54.5262 34.7453C54.5392 34.6999 54.5669 34.6464 54.6091 34.5847C54.7167 34.1239 54.9168 33.6403 55.2094 33.1342C55.1543 33.0692 55.0895 32.9523 55.015 32.7834C55.187 32.7836 55.3948 32.7448 55.6384 32.6671L55.6775 32.5308L55.585 32.4675C55.585 32.4675 55.4746 32.5095 55.2538 32.5937L55.1272 32.5206L55.2981 32.0533C55.402 32.0339 55.4978 31.9999 55.5855 31.9513C55.6246 31.815 55.6231 31.6916 55.581 31.5812L55.1084 31.8145L54.8604 31.5221C54.7598 31.4441 54.6106 31.3644 54.4126 31.2831C54.3834 31.2993 54.3347 31.2976 54.2665 31.2781C54.2438 31.2715 54.192 31.1952 54.1109 31.049L53.3608 31.3502C53.1334 31.4571 52.971 31.595 52.8734 31.7637C52.7371 31.7246 52.6396 31.8073 52.581 32.0117L52.5562 32.484C52.5302 32.5749 52.4619 32.6414 52.3515 32.6835C52.251 32.6055 52.204 32.4691 52.2107 32.2743L52.1182 32.2109L52.011 32.3277C51.9915 32.3959 52.0335 32.5063 52.1373 32.6589L52.3027 32.8539C52.2636 32.9902 52.2196 33.1005 52.1709 33.1849L52.0972 33.8276L51.79 34.2558L51.6728 34.6647L51.3901 34.8787L51.3511 35.015C51.2729 35.2876 51.1266 35.4547 50.9123 35.5161C51.0032 35.5422 51.1086 35.6462 51.2285 35.8281L50.4924 36.7233C50.4956 36.798 50.4337 37.0138 50.3068 37.3708L49.5549 39.4785L49.1194 41.6402C49.0999 41.7083 48.9959 41.8137 48.8075 41.9564C48.8237 41.9856 48.8366 42.0262 48.8463 42.0781C48.8787 42.1366 48.9225 42.1983 48.9776 42.2633L48.9483 42.3655L48.6123 42.3798C48.6058 42.4025 48.6074 42.4399 48.6171 42.4918C48.6333 42.5211 48.6462 42.5617 48.6559 42.6136L48.6654 42.8376C48.5031 42.8894 48.3243 43.084 48.1292 43.4214C48.2136 43.4702 48.2492 43.6033 48.236 43.8208C48.2228 44.0383 48.1723 44.1714 48.0846 44.22C48.1008 44.2492 48.2225 44.2964 48.4497 44.3615L48.4009 44.5319L48.2595 44.6389C48.2757 44.6681 48.3114 44.7152 48.3665 44.7802C48.4217 44.8452 48.4995 44.9167 48.6001 44.9947C48.5675 45.1083 48.5819 45.2722 48.6434 45.4866L48.7895 45.4916L48.9015 45.4868C48.9015 45.4868 48.9631 45.5291 49.0864 45.6136L49.1886 45.6429C49.3022 45.6755 49.4029 45.6674 49.4906 45.6188C49.4971 45.5961 49.5377 45.5832 49.6123 45.58C49.6708 45.5476 49.7 45.5314 49.7 45.5314L49.7098 45.4973C49.6644 45.4843 49.6417 45.4778 49.6417 45.4778L49.5297 45.4825C49.5589 45.4663 49.5962 45.4647 49.6417 45.4778L49.8316 45.4585L50.0897 45.4587C50.1124 45.4652 50.1318 45.4831 50.148 45.5123C50.1415 45.5351 50.1496 45.5497 50.1724 45.5562C50.2405 45.5757 50.3136 45.5352 50.3916 45.4347C50.4501 45.4023 50.4875 45.3146 50.5038 45.1718C50.7701 45.1007 50.8677 44.9319 50.7965 44.6657C50.9817 44.4483 51.1151 44.1547 51.1966 43.7847L51.7483 42.2465C51.8522 42.2271 51.9626 42.185 52.0796 42.1202C52.2322 42.0165 52.3265 41.9451 52.3622 41.9062C52.3622 41.9062 52.3508 41.9029 52.3281 41.8964C52.3054 41.8899 52.2454 41.799 52.1482 41.6236C52.145 41.5489 52.0964 41.4612 52.0024 41.3605L51.2965 41.1212C51.2381 41.1536 51.1861 41.1633 51.1407 41.1503L50.9656 40.9894C50.9428 40.9829 50.9169 40.9877 50.8876 41.004C50.8876 41.004 50.8763 41.0007 50.8535 40.9942L50.6734 40.9794C50.6507 40.9729 50.6231 40.9404 50.5907 40.8819C50.5745 40.8527 50.5323 40.8283 50.4642 40.8088C50.4349 40.825 50.3522 40.8135 50.2159 40.7744L50.1868 40.6186L50.3088 40.3217L50.3334 40.1074L50.3529 40.0393C50.379 39.9484 50.457 39.8479 50.5869 39.7376C50.7104 39.6501 50.7786 39.5836 50.7916 39.5382L50.7335 39.2265L50.8944 39.0513L50.8801 38.7153C50.9678 38.6667 51.1334 38.6036 51.3769 38.5259C51.3834 38.5032 51.3624 38.448 51.3138 38.3603C51.3138 38.3603 51.2472 38.378 51.1141 38.4136L50.9437 38.3648L50.9926 38.1944C51.0218 38.1782 51.051 38.162 51.0803 38.1458C51.116 38.1069 51.1485 38.0793 51.1777 38.0631C51.1777 38.0631 51.2232 37.9901 51.3143 37.8441C51.5286 37.7826 51.6585 37.7584 51.7039 37.7714L51.879 37.9323C51.9731 38.033 52.0315 38.0866 52.0542 38.0931L52.2003 38.0982C52.2522 38.0885 52.3123 38.0934 52.3804 38.1129L53.7971 38.4454C53.9269 38.5072 53.9836 38.6095 53.9673 38.7523L53.9718 39.1224C54.0237 39.1127 54.1682 39.0804 54.4052 39.0254C54.5806 38.9282 54.7072 38.9154 54.7851 38.9869L55.0625 39.177C55.1144 39.1673 55.1631 39.169 55.2085 39.182C55.254 39.1951 55.314 39.2 55.3887 39.1968C55.4958 39.2521 55.5882 39.3155 55.6661 39.387C55.7732 39.4423 55.8802 39.4976 55.9873 39.5529L56.0555 39.5724C56.2372 39.6245 56.419 39.5906 56.6009 39.4707C56.7015 39.5487 56.7078 39.698 56.62 39.9187L56.181 40.6779L56.2101 40.8337C56.2132 40.9084 56.2018 40.9912 56.1758 41.082C56.1074 41.2345 56.0278 41.2978 55.937 41.2717L55.8445 41.2083C55.8153 41.2245 55.7941 41.2553 55.7811 41.3008C55.7811 41.3008 55.7973 41.33 55.8297 41.3885L55.966 41.4276C55.94 41.5184 55.8993 41.6174 55.844 41.7245C55.8114 41.8381 55.761 41.9711 55.6927 42.1236C55.605 42.1722 55.54 42.2274 55.4978 42.289L55.5025 42.401C55.4699 42.5146 55.4243 42.6736 55.3657 42.8781C55.3298 43.0891 55.2776 43.3568 55.2091 43.6814C55.1214 43.73 55.0094 43.7348 54.8731 43.6957C54.8342 43.6599 54.7855 43.6583 54.727 43.6907C54.6686 43.7231 54.6474 43.7539 54.6637 43.7831C54.6961 43.8416 54.761 43.8725 54.8583 43.8758C54.8876 43.8596 54.9184 43.8808 54.9508 43.9392C54.905 44.2703 54.8463 44.5608 54.7747 44.8107C54.7257 45.0671 54.6638 45.2829 54.589 45.4581L54.3207 46.0081C54.2589 46.1379 54.2003 46.2564 54.145 46.3634C54.0963 46.4478 54.0621 46.524 54.0426 46.5922L53.9205 46.8891C53.8751 46.8761 53.7664 46.8695 53.5943 46.8693C53.4515 46.853 53.3736 46.8675 53.3605 46.9129C53.341 46.9811 53.5097 47.0786 53.8667 47.2056L53.8276 47.3419C53.808 47.41 53.7852 47.4895 53.7592 47.5804C53.7396 47.6486 53.7022 47.7362 53.6469 47.8433C53.468 48.2099 53.3704 48.4647 53.354 48.6075C53.341 48.6529 53.3053 48.6918 53.2468 48.7242C53.2565 48.7762 53.2451 48.859 53.2125 48.9726L53.1832 49.0748C53.0793 49.0942 52.9835 49.1282 52.8958 49.1768C52.8796 49.1475 52.8634 49.1183 52.8472 49.0891C52.831 49.0598 52.8148 49.0306 52.7986 49.0014C52.7531 48.9883 52.7012 48.998 52.6427 49.0304L52.5207 49.3274L52.6132 49.3908C52.6813 49.4103 52.8225 49.3893 53.0368 49.3279L53.0123 49.5421L52.749 49.946C52.5965 49.8777 52.4407 49.8207 52.2817 49.7751C52.1454 49.736 52.0237 49.6888 51.9166 49.6336L51.5954 49.4677C51.6019 49.445 51.6506 49.4466 51.7414 49.4727C51.7576 49.5019 51.8096 49.4922 51.8973 49.4436L51.9607 49.3512C51.8959 49.2342 51.8099 49.1481 51.7029 49.0928C51.5437 49.2193 51.4154 49.2809 51.318 49.2775C51.2595 49.3099 51.2238 49.3488 51.2108 49.3943C51.1296 49.4202 51.0046 49.3843 50.8359 49.2868C50.7774 49.3192 50.789 49.1504 50.8705 48.7804L50.9341 48.4299C50.9017 48.3714 50.8401 48.3291 50.7492 48.3031C50.6356 48.2705 50.5642 48.2623 50.535 48.2785L50.1306 48.5314C50.1013 48.5476 50.0494 48.5573 49.9747 48.5604C49.9228 48.5701 49.8595 48.5766 49.7848 48.5797C49.7198 48.6349 49.6029 48.6997 49.434 48.7742L49.0201 48.803C48.9292 48.7769 48.827 48.7476 48.7134 48.7151C48.5998 48.6825 48.4602 48.6548 48.2947 48.6319C48.2655 48.6481 48.1989 48.6659 48.095 48.6852C47.9911 48.7046 47.931 48.6997 47.9148 48.6705ZM52.2999 30.6772C52.3388 30.713 52.3875 30.7147 52.4459 30.6822C52.5044 30.6498 52.5174 30.6044 52.485 30.5459C52.4396 30.5329 52.3779 30.5767 52.2999 30.6772ZM51.33 31.6161C51.3981 31.6357 51.5686 31.5985 51.8413 31.5046C51.7116 31.4428 51.6224 31.3681 51.5737 31.2804L51.4181 31.0513C51.3887 31.2396 51.361 31.3792 51.335 31.47C51.3316 31.5674 51.33 31.6161 51.33 31.6161ZM57.6584 33.4677C57.6974 33.5034 57.7753 33.4889 57.8922 33.4241C57.876 33.3948 57.8452 33.3737 57.7998 33.3607C57.7316 33.3411 57.6845 33.3768 57.6584 33.4677ZM56.7326 34.1241C56.7684 34.0852 56.77 34.0365 56.7376 33.9781C56.7279 33.9261 56.6793 33.9245 56.5916 33.9731C56.572 34.0412 56.619 34.0916 56.7326 34.1241ZM55.9471 35.706L55.9812 35.7157C56.1175 35.7548 56.2507 35.7192 56.3806 35.609C56.5169 35.6481 56.6501 35.6125 56.78 35.5022L56.4495 34.8543L56.1426 35.0244C56.1489 35.1738 56.0838 35.4009 55.9471 35.706ZM50.8063 34.3425L50.8893 34.1819L50.8211 34.1623L50.7722 34.3327L50.8063 34.3425ZM50.7915 34.5227L50.8452 34.4643L50.8209 34.4204L50.7234 34.5031L50.7915 34.5227ZM53.1584 39.258C53.2527 39.1867 53.2868 39.1104 53.2609 39.0292L53.0322 38.9267L52.9638 39.1653L53.1584 39.258ZM53.0267 39.589C53.0559 39.5728 53.1159 39.5777 53.2068 39.6038L53.2264 39.5356C53.2329 39.5129 53.2248 39.4983 53.202 39.4918C53.202 39.4918 53.2053 39.4804 53.2118 39.4577C53.1144 39.4543 53.0527 39.4981 53.0267 39.589ZM48.382 38.8103C48.4112 38.7941 48.4356 38.7519 48.4551 38.6838C48.4389 38.6546 48.3967 38.6302 48.3286 38.6106C48.348 38.7145 48.3658 38.7811 48.382 38.8103ZM47.6017 39.988L47.6847 39.8274C47.6361 39.7397 47.6183 39.5871 47.6315 39.3696C47.6706 39.2333 47.6107 39.1423 47.4516 39.0967L47.3153 39.0576L47.2422 39.1842C47.2356 39.2069 47.2291 39.2296 47.2226 39.2523C47.2453 39.2588 47.2534 39.2735 47.2469 39.2962L47.2517 39.4082C47.2387 39.4536 47.2224 39.5104 47.2028 39.5786C47.1898 39.624 47.1816 39.6954 47.1783 39.7928C47.2075 39.7766 47.2789 39.7848 47.3925 39.8173L47.6017 39.988ZM48.0297 40.5532C48.0882 40.5208 48.1207 40.4933 48.1272 40.4706C48.1467 40.4024 48.0997 40.352 47.9861 40.3195C47.9438 40.3811 47.9584 40.459 48.0297 40.5532ZM52.7604 43.0899L52.9162 43.0608L52.8774 42.939C52.8481 42.9552 52.8303 42.9747 52.8238 42.9974C52.8172 43.0201 52.7961 43.0509 52.7604 43.0899ZM51.3071 45.3284C51.2194 45.377 51.1545 45.4321 51.1122 45.4938C51.0992 45.5392 51.1251 45.6204 51.1899 45.7373L51.3071 45.3284ZM44.8273 43.876C44.889 43.9183 44.9669 43.9037 45.0611 43.8324C45.0287 43.7739 45.0011 43.7415 44.9784 43.7349C44.9103 43.7154 44.8599 43.7624 44.8273 43.876ZM50.1283 45.8386L50.1673 45.7023C50.1511 45.673 50.109 45.6486 50.0408 45.6291L49.9872 45.6875C49.9742 45.7329 49.9757 45.7703 49.992 45.7995L50.1283 45.8386ZM51.9343 46.3565C51.9701 46.3175 51.9717 46.2688 51.9393 46.2104C51.9069 46.1519 51.8615 46.1389 51.803 46.1713C51.79 46.2167 51.8338 46.2784 51.9343 46.3565ZM44.9967 44.9572C45.1233 44.9443 45.2143 44.8843 45.2696 44.7773C45.3053 44.7384 45.307 44.6897 45.2746 44.6312L45.1724 44.6019L44.9967 44.9572ZM50.1571 46.2525C50.1831 46.1616 50.1734 46.1097 50.128 46.0966L50.0015 46.0235L49.8942 46.1403L50.1571 46.2525ZM49.1819 47.5955C49.2728 47.6216 49.3718 47.5762 49.4791 47.4595L49.4305 47.3718C49.2649 47.3489 49.1529 47.3537 49.0945 47.3861C49.1107 47.4153 49.1269 47.4445 49.1431 47.4738C49.1593 47.503 49.1722 47.5436 49.1819 47.5955Z" fill="#052930"/>
<defs>
<linearGradient id="paint0_linear_14_321" x1="48.2736" y1="8.85823" x2="32.8496" y2="62.6483" gradientUnits="userSpaceOnUse">
<stop stop-color="#F9DBAF"/>
<stop offset="0.495" stop-color="#938167"/>
<stop offset="1" stop-color="#F9DBAF"/>
</linearGradient>
</defs>
</svg>
