<svg width="66" height="61" viewBox="0 0 66 61" fill="none" xmlns="http://www.w3.org/2000/svg">
<path d="M37.5187 8.95139C38.4885 8.40803 39.7153 8.75982 40.2499 9.73455L46.3387 20.8378C46.4888 21.1116 46.701 21.3464 46.9581 21.5235L57.7393 28.9465C58.8624 29.7199 58.8993 31.3658 57.8119 32.1887L48.6699 39.1062C48.3673 39.3352 48.136 39.6455 48.0032 40.001L44.0977 50.4523C43.6746 51.5846 42.3516 52.0856 41.2846 51.5178L29.0858 45.0255C28.8379 44.8936 28.5651 44.8154 28.2849 44.7959L14.4994 43.8373C13.2936 43.7534 12.4372 42.6274 12.6784 41.443L14.9047 30.5101C14.9804 30.1383 14.9488 29.7526 14.8135 29.3981L10.7264 18.6871C10.2402 17.4131 11.1437 16.0367 12.506 15.9761L25.5826 15.3941C25.8945 15.3802 26.1988 15.2935 26.4712 15.1409L37.5187 8.95139Z" fill="url(#paint0_linear_11_877)"/>
<path d="M22.2312 35.9799C22.1187 35.9476 22.0263 35.8805 21.954 35.7786L21.9786 35.2681C22.0081 35.2359 22.0377 35.2038 22.0672 35.1717C22.0967 35.1395 22.1289 35.098 22.1638 35.0471L22.0957 34.7536L22.1931 33.7767C22.1717 33.7097 22.1531 33.6333 22.1371 33.5475C22.1424 33.5288 22.184 33.4899 22.2618 33.4311C22.345 33.3534 22.3892 33.3052 22.3946 33.2864L22.2421 32.9687C22.2155 32.7784 22.2585 32.6283 22.3712 32.5185C22.3445 32.4703 22.311 32.4099 22.2709 32.3375C22.2495 32.2705 22.2214 32.1914 22.1867 32.1003L22.3439 31.6582C22.3038 31.5858 22.2824 31.5187 22.2798 31.4571C22.3629 31.3794 22.4448 31.271 22.5253 31.1317C22.5173 31.0888 22.4932 31.0311 22.4531 30.9587C22.4371 30.873 22.4238 30.7778 22.4132 30.6733L22.4982 30.0582L22.39 29.6923L22.4508 29.1617L22.588 28.6834C22.7112 28.6781 22.781 28.6474 22.7971 28.5911C22.8132 28.5348 22.7571 28.3767 22.6287 28.1165L22.6893 27.799L22.7216 27.6865C22.6601 27.547 22.6268 27.3446 22.6216 27.0793C22.6753 27.0338 22.6995 26.9494 22.6942 26.8261L22.747 26.3236C22.7069 26.2512 22.6855 26.1842 22.6829 26.1225L22.6752 25.7245C22.6993 25.7111 22.7302 25.6388 22.7679 25.5075L22.9096 24.4825C22.864 24.4288 22.8347 24.3189 22.8214 24.1527L23.0591 23.6424C23.1237 23.4173 23.1319 23.2471 23.0837 23.1318L22.8708 22.9185C22.9086 22.6452 22.9423 22.4214 22.972 22.2472C23.0204 22.0784 23.0647 21.9592 23.105 21.8895C23.1104 21.8708 23.1064 21.8493 23.093 21.8252C23.0984 21.8064 23.0971 21.7756 23.0891 21.7327C23.0489 21.6603 23.0343 21.6054 23.045 21.5679C23.0611 21.5116 23.1295 21.45 23.2502 21.3831C23.1404 21.2704 23.0896 21.1645 23.0978 21.0654C23.1246 20.9716 23.1515 20.8778 23.1784 20.784L23.1873 19.9036C23.1739 19.8795 23.2021 19.8165 23.2719 19.7147C23.2827 19.6772 23.2747 19.6343 23.2479 19.586L23.3567 19.3128C23.3675 19.2752 23.318 19.2002 23.2082 19.0875C23.2189 19.05 23.2203 19.0098 23.2123 18.9669C23.2285 18.9106 23.2379 18.8423 23.2407 18.7619L23.1283 18.5165C23.2142 18.3585 23.3296 18.2393 23.4744 18.159L23.6432 18.2074C23.6995 18.2236 23.7518 18.2183 23.8 18.1915C23.8644 18.1085 23.8966 18.067 23.8966 18.067C24.0465 18.2521 24.1121 18.3419 24.0934 18.3365C24.1496 18.3527 24.1644 18.3366 24.1376 18.2883C24.3037 18.4171 24.3746 18.4882 24.3505 18.5016L24.6441 18.4335C24.778 18.5328 24.9306 18.6375 25.1021 18.7476C25.1396 18.7583 25.2107 18.6874 25.3154 18.5347L25.5204 18.563C25.539 18.7105 25.5577 18.7869 25.5764 18.7922C25.6247 18.7655 25.6823 18.7414 25.7494 18.72C25.8352 18.704 25.9303 18.6907 26.0349 18.6801C26.0724 18.6909 26.1286 18.707 26.2037 18.7285C26.2841 18.7313 26.3738 18.7367 26.473 18.7448C26.5239 18.7797 26.5305 18.8628 26.4929 18.9941L26.3679 19.3237C26.3115 19.4496 26.2726 19.5501 26.251 19.6251C26.2295 19.7001 26.204 19.7537 26.1745 19.7858L26.1784 19.8783L26.1462 19.9908L26.0334 20.1716C26.0281 20.1904 26.0669 20.232 26.1499 20.2964L26.1416 20.5376C26.1764 20.6288 26.183 20.7118 26.1615 20.7869L26.0084 21.1083C25.9815 21.2021 26.031 21.3482 26.1567 21.5467L25.9751 22.2863L26.0072 22.3868C26.0152 22.4297 26.0205 22.482 26.0231 22.5436C26.0257 22.6053 26.0257 22.6763 26.0229 22.7567L26.0149 22.7848C25.9826 22.8974 25.8699 23.0071 25.6768 23.1142C25.7303 23.2107 25.7691 23.3233 25.7931 23.452C25.8171 23.5807 25.8451 23.7308 25.8771 23.9023L25.8167 24.0068C25.7818 24.0577 25.7563 24.1113 25.7402 24.1675L25.4828 24.2155C25.386 24.5532 25.2997 25.0663 25.224 25.7551C25.2213 25.8355 25.2574 25.8864 25.3324 25.908L25.5414 26.0288L25.7183 26.049C25.5975 26.258 25.5183 26.3571 25.4808 26.3463C25.4888 26.3892 25.4941 26.4415 25.4967 26.5031C25.5047 26.546 25.51 26.5983 25.5126 26.6599C25.5233 26.7645 25.5151 26.8636 25.4882 26.9574C25.4855 27.0378 25.4827 27.1182 25.48 27.1986C25.4638 27.2549 25.3365 27.3097 25.0979 27.3631C25.1488 27.398 25.2277 27.512 25.3348 27.705C25.3883 27.8016 25.3989 27.9061 25.3666 28.0187L25.3182 28.1875L25.1012 28.0948C25.0449 28.0786 24.9538 28.1134 24.8277 28.1991L24.9924 28.3681L24.8757 28.4564C24.9025 28.5047 24.9199 28.5502 24.9279 28.5931C25.0807 28.5558 25.2133 28.5532 25.3259 28.5855C25.3634 28.5962 25.3808 28.6418 25.378 28.7222C25.3753 28.8026 25.402 28.8509 25.4583 28.867L25.4459 29.2288C25.5048 29.3066 25.5208 29.3924 25.4939 29.4862C25.4831 29.5237 25.4428 29.5933 25.3731 29.6951L25.377 29.7876C25.3904 29.8117 25.4158 29.8292 25.4533 29.8399C25.6221 29.8883 25.7388 29.8 25.8034 29.5749C25.8195 29.5187 25.8156 29.4262 25.7916 29.2975L25.6631 29.1084L25.7034 28.9678L25.7959 28.9638C25.7959 28.9638 25.7933 28.9022 25.788 28.7789L25.6192 28.7305C25.6192 28.7305 25.6581 28.701 25.7359 28.6422C25.7279 28.5993 25.7427 28.5122 25.7804 28.3809L25.9616 28.0675L26.1308 27.6897C26.1282 27.6281 26.1564 27.4941 26.2156 27.2878C26.2264 27.2503 26.2706 27.202 26.3484 27.1432C26.4074 27.0789 26.4396 27.0374 26.445 27.0186L26.3527 26.8095C26.401 26.7827 26.464 26.7399 26.5418 26.681C26.6437 26.6087 26.755 26.5392 26.8757 26.4723L26.7592 26.3475C26.7754 26.2913 26.7942 26.2256 26.8157 26.1506C26.8372 26.0756 26.8494 25.9978 26.8521 25.9174L26.9729 25.7085C27.0078 25.6576 27.0306 25.6134 27.0414 25.5759C27.0522 25.5384 27.0602 25.5103 27.0656 25.4915L27.235 24.9007C27.2673 24.7881 27.3223 24.7024 27.4001 24.6435L27.5691 24.4789C27.6094 24.4092 27.6215 24.3315 27.6055 24.2457C27.6859 24.2485 27.7744 24.2231 27.8709 24.1696C27.9728 24.0973 28.0252 24.021 28.0279 23.9406L28.0722 23.8924C28.0883 23.8361 28.0696 23.7597 28.0161 23.6632C27.9385 23.58 27.9131 23.4915 27.94 23.3977L27.9561 23.3415L28.1171 23.2049C28.1761 23.1407 28.2083 23.0992 28.2137 23.0804L28.1657 22.8231C28.182 22.6247 28.1901 22.5256 28.1901 22.5256C28.2088 22.531 28.2786 22.4292 28.3994 22.2202L28.4197 22.0434C28.4332 21.9254 28.4306 21.8638 28.4118 21.8584C28.5888 21.8077 28.7659 21.6149 28.9431 21.28C29.0101 21.2586 29.0517 21.2198 29.0678 21.1635C29.0169 21.1286 28.9607 21.0415 28.8992 20.902C28.9529 20.8565 29.0683 20.6663 29.2455 20.3315L29.2498 19.9978C29.3842 19.671 29.5451 19.5344 29.7327 19.5882C29.7889 19.6043 29.8345 19.658 29.8692 19.7491C29.8798 19.8537 29.9227 19.9167 29.9977 19.9382C30.0727 19.9597 30.1518 19.9317 30.235 19.854C30.3181 19.7764 30.3878 19.7456 30.4441 19.7618C30.4842 19.8342 30.5485 19.8932 30.6369 19.9388L30.7937 19.9229C30.8554 19.9203 30.9049 19.9243 30.9425 19.9351C31.055 19.9674 31.118 19.9956 31.1313 20.0197C31.2088 20.2449 31.3039 20.3737 31.4164 20.4059C31.4727 20.4221 31.5545 20.3846 31.6617 20.2936C31.7824 20.2267 31.8521 20.1959 31.8709 20.2013L31.9392 20.2818L32.3614 20.1897C32.3748 20.2139 32.4377 20.2421 32.5503 20.2743C32.569 20.2797 32.5797 20.3132 32.5823 20.3749L32.4253 20.6039C32.377 20.6306 32.3086 20.6922 32.2201 20.7886C32.22 20.9307 32.1635 21.1276 32.0507 21.3794C32.0399 21.417 31.9983 21.4558 31.9259 21.4959C31.8535 21.5361 31.8146 21.5655 31.8093 21.5843C31.7985 21.6218 31.8078 21.6955 31.8372 21.8054L31.8451 21.9903C31.8289 22.0466 31.7847 22.0948 31.7123 22.1349C31.6399 22.1751 31.5741 22.2273 31.5151 22.2915L31.3337 22.818C31.3014 22.9306 31.2705 23.0029 31.241 23.035C31.1954 23.1234 31.1497 23.2119 31.1041 23.3003C31.0772 23.394 31.0503 23.4878 31.0234 23.5816C31.0019 23.6566 30.9804 23.7316 30.9589 23.8067C30.9561 23.8871 30.9534 23.9675 30.9506 24.0479C30.9318 24.0425 30.9104 24.0465 30.8863 24.0599C30.8701 24.1162 30.8513 24.1818 30.8298 24.2568L30.8217 24.285C30.8217 24.285 30.819 24.2943 30.8137 24.3131C30.7734 24.3827 30.7398 24.4645 30.7129 24.5582L30.8416 24.5342C30.8899 24.5075 30.9314 24.5397 30.9661 24.6308L30.9096 24.8278C30.9096 24.8278 30.8574 24.8331 30.7528 24.8437C30.7153 24.833 30.6819 24.7726 30.6525 24.6627C30.6471 24.6815 30.6149 24.723 30.5559 24.7872C30.4326 24.7925 30.3468 24.8085 30.2986 24.8352C30.3628 24.8943 30.3574 24.9841 30.2822 25.1046C30.2419 25.1742 30.1789 25.2171 30.0931 25.2331C30.2083 25.327 30.239 25.4677 30.1852 25.6553L30.0805 25.808L29.8873 26.057C29.8873 26.057 29.8632 26.0704 29.8149 26.0972C29.7399 26.0756 29.6394 26.1077 29.5133 26.1934C29.5401 26.2416 29.6191 26.2846 29.7504 26.3222L29.7218 26.7403C29.7085 26.7162 29.6266 26.8247 29.4763 27.0657C29.4468 27.0979 29.4146 27.1394 29.3797 27.1903C29.3689 27.2278 29.3528 27.2841 29.3313 27.3591L29.3029 27.5641C29.2788 27.5775 29.2506 27.6404 29.2183 27.753C29.1914 27.8467 29.1444 27.9753 29.0773 28.1388C29.0665 28.1763 29.0491 28.2017 29.0249 28.2151C29.0088 28.2714 28.9055 28.3839 28.715 28.5525C28.7284 28.5767 28.727 28.6169 28.7109 28.6731C28.6706 28.7428 28.5781 28.8177 28.4333 28.898C28.4091 28.9114 28.3877 28.9154 28.3689 28.91C28.452 28.9744 28.5309 29.0884 28.6058 29.252C28.5951 29.2895 28.5414 29.335 28.4449 29.3885C28.3134 29.4929 28.2477 29.5451 28.2477 29.5451C28.2879 29.6175 28.3092 29.6845 28.3119 29.7462C28.2796 29.8587 28.1509 29.9537 27.9256 30.0312L27.8932 30.3569C27.8529 30.4265 27.7817 30.5685 27.6797 30.7828C27.6742 30.9436 27.6123 31.1593 27.4941 31.4299C27.4888 31.4487 27.4526 31.4687 27.3855 31.4901C27.2944 31.5249 27.2434 31.561 27.2327 31.5985C27.3049 31.7004 27.349 31.8653 27.3649 32.0931C27.2683 32.1466 27.1878 32.2149 27.1234 32.2979L27.0388 32.4868C27.0147 32.5002 26.9704 32.5484 26.906 32.6314L26.7366 33.2222C26.6562 33.2195 26.5798 33.2382 26.5074 33.2783C26.3706 33.4015 26.2914 33.5006 26.2699 33.5756C26.3208 33.6105 26.3556 33.7016 26.3742 33.8491L26.2492 34.1786C26.1928 34.3045 26.1418 34.4117 26.0962 34.5001C26.0693 34.5939 26.0504 34.6595 26.0397 34.697L25.8707 34.8617L25.8303 35.0024C25.8088 35.0774 25.7792 35.1806 25.7416 35.3119C25.704 35.4431 25.6462 35.6093 25.5683 35.8102C25.52 35.837 25.4543 35.8181 25.3713 35.7537C25.323 35.7805 25.2989 35.7939 25.2989 35.7939L25.2865 36.1557C25.289 36.3594 25.2822 36.4894 25.266 36.5456L25.2499 36.6019C25.2122 36.7332 25.1372 36.7827 25.0246 36.7504L24.9563 36.67C24.9242 36.6405 24.8894 36.6203 24.8519 36.6096C24.7715 36.6068 24.6844 36.592 24.5906 36.5651C24.5156 36.5436 24.4124 36.514 24.2811 36.4764L24.2048 36.424L24.1204 36.3998L23.7505 36.4155C23.713 36.4048 23.6126 36.2948 23.4493 36.0856C23.3527 36.1391 23.2308 36.1752 23.0833 36.1938L22.7819 36.0769C22.6935 36.0313 22.6212 36.0004 22.5649 35.9842C22.5274 35.9735 22.4993 35.9654 22.4805 35.96L22.2312 35.9799ZM30.4793 20.8071C30.4847 20.7883 30.5276 20.7803 30.608 20.7831L30.4272 20.6703L30.3266 20.7024L30.4793 20.8071ZM28.9073 20.8739L28.8992 20.902L28.9073 20.8739ZM30.3167 22.6482C30.4293 22.6805 30.499 22.6497 30.5259 22.5559L30.5099 22.3991C30.5314 22.3241 30.5355 22.2745 30.5221 22.2504C30.4686 22.1539 30.3977 22.0828 30.3093 22.0371C30.2959 22.013 30.2825 21.9888 30.2691 21.9647C30.2799 21.9272 30.2692 21.8937 30.2371 21.8642C30.2237 21.84 30.1982 21.8226 30.1607 21.8118C29.9999 21.8063 29.9007 21.8692 29.863 22.0005C29.8737 22.105 29.9044 22.1748 29.9553 22.2097C30.0758 22.2848 30.1361 22.3224 30.1361 22.3224L30.1158 22.4993C30.0997 22.5555 30.1667 22.6052 30.3167 22.6482ZM24.7705 20.7534C24.7813 20.7159 24.7733 20.673 24.7465 20.6247C24.7385 20.5818 24.6983 20.5804 24.6259 20.6206C24.6473 20.6876 24.6955 20.7319 24.7705 20.7534ZM24.1393 20.7246L24.0268 20.6924L24.099 20.8653L24.1393 20.7246ZM29.1349 22.5225C29.1858 22.5573 29.2528 22.536 29.3359 22.4583C29.3226 22.4342 29.2877 22.4141 29.2315 22.3979C29.194 22.3872 29.1618 22.4287 29.1349 22.5225ZM30.8631 23.0789L30.9435 23.0106L30.8873 22.9945L30.8349 23.0708L30.8631 23.0789ZM28.1982 22.4974L28.1901 22.5256L28.1982 22.4974ZM30.7777 24.1201L30.8097 24.2206C30.8312 24.1456 30.8567 24.092 30.8863 24.0599C30.8434 24.0679 30.8072 24.088 30.7777 24.1201ZM29.0854 23.7566C29.1363 23.7915 29.2034 23.7702 29.2865 23.6925C29.2731 23.6684 29.2383 23.6482 29.1821 23.6321C29.1445 23.6214 29.1123 23.6629 29.0854 23.7566ZM23.3736 26.8991L23.5546 26.7988C23.5119 26.6647 23.4624 26.5896 23.4061 26.5735C23.3311 26.552 23.2828 26.5787 23.2613 26.6538C23.2665 26.7771 23.304 26.8588 23.3736 26.8991ZM23.012 26.6736C23.0308 26.679 23.0643 26.6683 23.1125 26.6416L23.012 26.6736ZM26.6333 27.7425L26.6494 27.6862L26.5369 27.6539L26.5207 27.7102L26.6333 27.7425ZM26.2347 28.3893L26.3151 28.3211C26.2696 28.2674 26.2133 28.2513 26.1463 28.2727C26.1865 28.3451 26.2159 28.384 26.2347 28.3893ZM27.8218 29.3316C27.8513 29.2995 27.8527 29.2593 27.8259 29.211C27.8125 29.1869 27.763 29.1828 27.6772 29.1988C27.6986 29.2658 27.7468 29.3101 27.8218 29.3316ZM23.4688 28.2661L23.6055 28.214C23.6109 28.1952 23.5734 28.1845 23.493 28.1817C23.4689 28.1951 23.4608 28.2232 23.4688 28.2661ZM23.7499 28.5599C23.8008 28.5947 23.8679 28.5734 23.951 28.4957C23.9243 28.4474 23.8867 28.4367 23.8385 28.4634C23.7902 28.4902 23.7607 28.5223 23.7499 28.5599ZM26.0148 31.2797C26.0309 31.2235 26.0256 31.1712 25.9989 31.1229C25.9721 31.0747 25.9292 31.0827 25.8702 31.1469C25.8541 31.2032 25.9023 31.2475 26.0148 31.2797ZM24.1095 30.9161C24.2302 30.8492 24.2959 30.797 24.3067 30.7595C24.2799 30.7112 24.2665 30.6871 24.2665 30.6871L24.0373 30.7432L24.0051 30.8557L24.1095 30.9161ZM23.8878 31.5833C23.9789 31.5485 24.0326 31.503 24.0487 31.4467L23.9161 31.3782C23.8196 31.4318 23.7632 31.4867 23.7471 31.5429L23.8878 31.5833ZM25.7877 33.346C25.8386 33.3809 25.9056 33.3595 25.9888 33.2818C25.962 33.2336 25.9245 33.2228 25.8762 33.2496C25.828 33.2763 25.7985 33.3085 25.7877 33.346ZM23.6894 33.0183C23.7135 33.0049 23.731 32.9795 23.7417 32.942C23.7579 32.8857 23.7191 32.8441 23.6253 32.8172C23.5958 32.8494 23.6171 32.9164 23.6894 33.0183ZM24.7341 33.6224C24.7716 33.6331 24.8333 33.6305 24.9191 33.6145L24.9594 33.4738C24.8951 33.4148 24.8442 33.3799 24.8067 33.3692C24.7692 33.3584 24.7076 33.361 24.6218 33.377L24.5814 33.5177C24.6457 33.5767 24.6966 33.6116 24.7341 33.6224ZM24.303 34.5949C24.3138 34.5574 24.3058 34.5145 24.279 34.4662C24.271 34.4233 24.2308 34.4219 24.1584 34.4621C24.1423 34.5183 24.1905 34.5626 24.303 34.5949ZM23.092 35.5264C23.1778 35.5104 23.2327 35.4957 23.2569 35.4824C23.2676 35.4448 23.2784 35.4073 23.2892 35.3698C23.3187 35.3377 23.3536 35.2868 23.3938 35.2171L23.5066 35.0363C23.5362 34.8622 23.4666 34.7509 23.2978 34.7025C23.2228 34.6809 23.1612 34.6836 23.1129 34.7103L23.0726 34.851L23.189 34.9757C23.189 34.9757 23.1541 35.0266 23.0843 35.1284L22.9917 35.3454C23.0023 35.45 23.0357 35.5103 23.092 35.5264ZM30.8758 38.6718L30.7192 38.4747L30.5986 38.4705C30.5557 38.4785 30.5061 38.4745 30.4498 38.4583L30.257 38.2813C30.1473 38.1686 30.0736 38.1069 30.0361 38.0961C29.9798 38.08 29.9316 38.1067 29.8913 38.1764C29.7947 38.2299 29.721 38.2392 29.6701 38.2043L29.5657 38.1439C29.5148 38.109 29.4612 38.0835 29.4049 38.0674L29.2481 38.0833C29.1677 38.0805 29.1115 38.0644 29.0793 38.0349C29.0793 38.0349 29.0284 38 28.9266 37.9302L28.782 37.7974C28.782 37.7974 28.6627 37.8241 28.4242 37.8775L28.2835 37.8371L28.2514 37.7366L28.4568 37.3388C28.5025 37.2504 28.5575 37.1647 28.6219 37.0816C28.6917 36.9799 28.7548 36.866 28.8112 36.7401L28.7671 36.5752C28.7645 36.5136 28.7498 36.4586 28.7231 36.4104C28.7151 36.3675 28.7164 36.3273 28.7272 36.2897L28.9889 35.9081C29.0347 35.6776 29.1315 35.34 29.2793 34.8952C29.4106 34.9329 29.55 34.9424 29.6974 34.9238C29.7081 34.8863 29.6586 34.8112 29.5489 34.6985L29.356 34.5214L29.5733 34.401L29.6459 34.1478C29.6057 34.0754 29.5844 34.0084 29.5817 33.9467L29.6665 33.5448C29.7498 33.3251 29.868 33.1255 30.0209 32.9461L30.1334 32.9784C30.1709 32.9891 30.2179 32.9315 30.2743 32.8056C30.3066 32.6931 30.316 32.6247 30.3026 32.6006C30.2785 32.614 30.2289 32.6099 30.1539 32.5884L30.1059 32.3311C30.1248 32.1944 30.1356 32.0858 30.1384 32.0054C30.1653 31.9117 30.1989 31.8299 30.2391 31.7603C30.2768 31.629 30.3921 31.5098 30.5852 31.4028C30.6201 31.3519 30.6456 31.2984 30.6618 31.2421C30.6779 31.1858 30.6913 31.1389 30.7021 31.1014C30.7451 30.9514 30.7412 30.8589 30.6903 30.824L31.1659 29.5902C31.0964 29.4079 31.075 29.2698 31.1019 29.1761L31.364 28.3682L31.8394 27.3475C31.8448 27.3288 31.814 27.2591 31.7471 27.1384C31.8544 27.0474 31.9188 26.9643 31.9403 26.8893L32.166 26.3146C32.158 26.2717 32.1594 26.2315 32.1702 26.194C32.1863 26.1377 32.1957 26.0694 32.1985 25.989L32.3354 25.7238C32.3596 25.7104 32.3931 25.6997 32.436 25.6917C32.4789 25.6837 32.5218 25.6757 32.5647 25.6677C32.6183 25.6222 32.5982 25.586 32.5045 25.5591L32.3638 25.5188C32.3879 25.5054 32.4282 25.4358 32.4846 25.3098C32.4873 25.2294 32.4995 25.1517 32.521 25.0767C32.5479 24.9829 32.5775 24.8798 32.6097 24.7672C32.6554 24.6788 32.6863 24.6065 32.7024 24.5502C32.7427 24.4806 32.7682 24.427 32.7789 24.3895C32.8166 24.2582 32.8368 24.1523 32.8396 24.0719C32.8611 23.9969 32.8839 23.9527 32.908 23.9393L33.0609 23.8309L32.9606 23.6499C32.9472 23.6258 32.9593 23.5481 32.997 23.4168L33.3071 22.8663C33.2991 22.8234 33.3139 22.7363 33.3515 22.605L33.4843 22.4604C33.4763 22.4175 33.459 22.3719 33.4322 22.3237C33.4296 22.262 33.4297 22.191 33.4324 22.1106C33.4378 22.0918 33.4646 22.0691 33.5129 22.0423C33.5611 22.0156 33.5907 21.9834 33.6014 21.9459L33.6461 21.4716C33.6702 21.4582 33.7024 21.4167 33.7427 21.347C33.7347 21.3041 33.7227 21.2398 33.7067 21.154L33.7712 20.9289L34.0245 21.0015L34.2092 21.2067L34.7477 21.4525C34.7423 21.4713 34.69 21.5476 34.5907 21.6815C34.6174 21.7298 34.6643 21.7432 34.7313 21.7218C34.7609 21.6897 34.7757 21.6026 34.7758 21.4606C34.8241 21.4338 34.9326 21.4446 35.1014 21.493C35.2327 21.5307 35.3305 21.579 35.3948 21.638L35.6683 21.5338C35.6441 21.5472 35.6776 21.6075 35.7686 21.7148C35.8704 21.7846 35.9775 21.8356 36.0901 21.8679L36.1906 21.8358C36.2147 21.8224 36.2456 21.8211 36.2831 21.8319L36.5001 21.9245C36.5376 21.9353 36.5724 21.9554 36.6046 21.9849C36.6367 22.0145 36.6621 22.0319 36.6809 22.0373L36.8096 22.0133C36.8953 21.9973 36.9382 21.9893 36.9382 21.9893C37.1258 22.0431 37.1847 22.1209 37.1149 22.2226L36.9538 22.5722C36.9055 22.599 36.8492 22.6539 36.7848 22.7369C36.7606 22.7503 36.7378 22.7945 36.7163 22.8695C36.6786 23.0008 36.6477 23.0732 36.6236 23.0865C36.4949 23.1105 36.4279 23.1319 36.4225 23.1507C36.3958 23.1024 36.3663 23.0635 36.3342 23.034L36.2537 23.1023C36.2296 23.1156 36.243 23.1398 36.2939 23.1747C36.3126 23.18 36.3341 23.176 36.3582 23.1627C36.3636 23.1439 36.3729 23.1466 36.3863 23.1707L36.5992 23.384L36.2686 24.3245C36.1158 24.3618 35.9776 24.5252 35.8541 24.8145C35.9076 24.9111 35.9625 24.9674 36.0188 24.9835C36.0375 24.9889 36.059 24.9849 36.0831 24.9715C36.0885 24.9528 36.1005 24.9461 36.1193 24.9515C36.1568 24.9622 36.209 25.0279 36.2759 25.1486C36.1874 25.245 36.103 25.2208 36.0227 25.076L35.8737 25.2769C35.788 25.2929 35.7182 25.3236 35.6646 25.3692C35.6162 25.538 35.6589 25.672 35.7929 25.7713C35.7607 25.7418 35.7017 25.8061 35.6158 25.9641C35.6988 26.0285 35.7269 26.1076 35.7 26.2014C35.6839 26.2577 35.6154 26.3192 35.4948 26.3861L35.5188 26.5148L35.4584 26.6193C35.4637 26.6005 35.4222 26.5683 35.3338 26.5227C35.3338 26.5227 35.2735 26.5561 35.1528 26.623C35.1099 26.631 35.0577 26.6363 34.996 26.6389C34.9344 26.6416 34.8513 26.6482 34.7467 26.6588C34.7681 26.7258 34.8069 26.7674 34.8632 26.7835L34.9757 26.8158C34.965 26.8533 34.973 26.8962 34.9997 26.9445C34.9702 26.9766 34.9393 27.049 34.9071 27.1615C34.9901 27.2259 35.0624 27.3278 35.1239 27.4672C35.1265 27.5289 35.1063 27.6347 35.0633 27.7848C34.9961 27.9482 34.9384 28.0433 34.8901 28.0701C34.8606 28.1022 34.8405 28.137 34.8297 28.1745L34.797 28.7132C34.7943 28.7936 34.7768 28.8901 34.7445 29.0026C34.723 29.0777 34.6948 29.1406 34.6599 29.1915C34.6491 29.229 34.629 29.2638 34.5995 29.296C34.6181 29.4434 34.6194 29.5453 34.6032 29.6015L34.2894 29.8465C34.2599 29.8786 34.2317 29.9416 34.2048 30.0353C34.2236 30.0407 34.2422 30.1171 34.2609 30.2646C34.2769 30.3503 34.2768 30.4214 34.2607 30.4776C34.2338 30.5714 34.156 30.6303 34.0273 30.6543C34.0166 30.6918 34.0125 30.7414 34.0151 30.803C34.0177 30.8647 34.015 30.9451 34.0068 31.0443L33.9905 31.3136C33.9664 31.327 33.9395 31.3497 33.91 31.3819C33.8993 31.4194 33.8698 31.4515 33.8215 31.4783L33.7971 31.7758C33.773 31.7891 33.7341 31.8186 33.6804 31.8641C33.6321 31.8908 33.5812 31.927 33.5275 31.9725C33.4926 32.0234 33.4537 32.1239 33.4107 32.2739C33.3891 32.3489 33.3931 32.4414 33.4225 32.5513L33.3621 32.6558C33.3942 32.6853 33.3914 32.7657 33.3538 32.897L33.2812 33.1502C33.2998 33.2976 33.3158 33.3834 33.3292 33.4076L32.9953 33.6163C33.0274 33.6458 33.0596 33.6753 33.0917 33.7048C33.1238 33.7343 33.1627 33.7759 33.2082 33.8296C33.1276 33.9689 33.0431 34.0867 32.9545 34.1831C32.8177 34.3063 32.744 34.3866 32.7332 34.4241L32.6681 35.2884C32.6439 35.3018 32.6198 35.3152 32.5956 35.3286C32.5715 35.3419 32.5447 35.3647 32.5152 35.3968L32.3338 35.9233C32.3096 35.9367 32.2547 35.9514 32.1689 35.9674C32.142 36.0612 32.1794 36.1429 32.2812 36.2127C32.1767 36.2234 32.1163 36.2568 32.1002 36.3131L32.0841 36.3693C32.0572 36.4631 32.0732 36.5489 32.1321 36.6267C32.199 36.7474 32.2243 36.8358 32.2082 36.8921L32.0111 37.0487L31.9223 37.3582L31.8661 37.342C31.7535 37.3098 31.6115 37.3096 31.4399 37.3416L31.5202 37.4864L31.5764 37.5026C31.7828 37.5617 31.8361 37.8003 31.7366 38.2183L31.5678 38.1699C31.541 38.1217 31.4498 38.1564 31.2943 38.2742C31.2943 38.2742 31.317 38.301 31.3625 38.3547L31.5475 38.3468L31.5351 38.7086C31.2697 38.7137 31.1464 38.719 31.1652 38.7244L31.1933 38.7324C31.1933 38.7324 31.184 38.7297 31.1652 38.7244L31.0326 38.6559C30.9763 38.6398 30.9241 38.6451 30.8758 38.6718ZM35.1923 23.1937C35.2432 23.2286 35.3075 23.2166 35.3853 23.1577C35.3719 23.1336 35.3465 23.1161 35.3089 23.1054C35.2527 23.0892 35.2138 23.1187 35.1923 23.1937ZM35.2755 24.4964L35.3679 24.4924L35.5088 24.3197C35.5946 24.3037 35.6737 24.2756 35.7461 24.2355L35.6743 23.6364C35.5939 23.6337 35.5295 23.6457 35.4813 23.6724L35.4571 23.7568C35.4356 23.8318 35.3953 23.9015 35.3363 23.9658C35.2451 24.0005 35.1365 24.0607 35.0105 24.1464C35.0746 24.3474 35.1629 24.4641 35.2755 24.4964ZM34.5955 25.0626C34.6304 25.0117 34.6344 24.9621 34.6077 24.9139C34.5997 24.871 34.5595 24.8696 34.4871 24.9097C34.4763 24.9472 34.5125 24.9982 34.5955 25.0626ZM34.2895 25.4925L34.201 25.5889C34.2251 25.5755 34.2466 25.5715 34.2653 25.5769L34.2935 25.5849C34.3042 25.5474 34.3029 25.5166 34.2895 25.4925ZM32.3638 25.5188C32.3584 25.5375 32.3584 25.5375 32.3638 25.5188V25.5188ZM32.8255 26.1383C32.8577 26.1679 32.8979 26.1692 32.9461 26.1425C32.9944 26.1157 32.9958 26.0755 32.9503 26.0219C32.894 26.0057 32.8524 26.0446 32.8255 26.1383ZM33.6034 28.3101C33.6329 28.2779 33.6343 28.2377 33.6075 28.1895C33.5995 28.1466 33.5593 28.1452 33.4869 28.1853C33.4708 28.2416 33.5096 28.2832 33.6034 28.3101ZM32.3011 27.9671C32.3253 27.9537 32.3481 27.9095 32.3696 27.8345L32.2571 27.8022C32.2383 27.7968 32.2423 27.8183 32.2691 27.8666C32.2958 27.9148 32.3065 27.9483 32.3011 27.9671ZM32.0746 29.3941C32.0988 29.3807 32.1162 29.3553 32.127 29.3177C32.1431 29.2615 32.111 29.232 32.0306 29.2292C31.9823 29.256 31.997 29.3109 32.0746 29.3941ZM32.3101 31.2276L32.3424 31.115C32.3344 31.0721 32.3062 31.0641 32.258 31.0908L32.3101 31.2276ZM32.0474 32.6746C32.0957 32.6479 32.1225 32.6251 32.1279 32.6064C32.144 32.5501 32.1052 32.5085 32.0114 32.4816C31.9765 32.5325 31.9885 32.5969 32.0474 32.6746ZM30.994 32.738L31.2313 32.6538C31.2207 32.5492 31.1698 32.4433 31.0788 32.336C30.9529 32.2796 30.8792 32.2889 30.8577 32.3639C30.8254 32.4765 30.8709 32.6011 30.994 32.738ZM33.3372 33.3794C33.3319 33.3982 33.3292 33.4076 33.3292 33.4076L33.3372 33.3794ZM29.4998 35.5065C29.5507 35.5414 29.6178 35.52 29.7009 35.4424C29.6875 35.4183 29.6621 35.4008 29.6246 35.3901C29.5683 35.3739 29.5267 35.4127 29.4998 35.5065ZM30.7924 37.5822C30.8085 37.526 30.8099 37.4858 30.7965 37.4616C30.7832 37.4375 30.7336 37.4334 30.6478 37.4494C30.6317 37.5057 30.6799 37.55 30.7924 37.5822ZM28.9393 37.3553C28.95 37.3178 28.942 37.2749 28.9153 37.2267C28.8885 37.1784 28.851 37.1676 28.8027 37.1944C28.792 37.2319 28.8375 37.2856 28.9393 37.3553ZM36.4827 40.0969L36.4345 40.0526L35.8718 39.8913C35.8531 39.8859 35.8156 39.8751 35.7593 39.859C35.7218 39.8483 35.6776 39.8254 35.6267 39.7905C35.5812 39.7369 35.5048 39.6846 35.3977 39.6335L34.7183 39.5605C34.6032 39.4666 34.4505 39.3619 34.2603 39.2465L33.6654 39.1977C33.5261 39.1171 33.4337 39.0501 33.3881 38.9964L33.3842 38.9039L34.6219 35.3311C34.8821 35.0606 35.023 34.8879 35.0445 34.8128C35.0552 34.7753 35.066 34.7378 35.0767 34.7003C35.0875 34.6628 35.0916 34.6132 35.0889 34.5516C35.0891 34.4095 35.1066 34.313 35.1415 34.2621C35.1684 34.1684 35.2288 34.0639 35.3227 33.9487L35.4716 33.7479L35.4723 33.1086L35.6293 32.8796C35.6588 32.8475 35.6937 32.7966 35.7339 32.727C35.7742 32.6573 35.8199 32.5689 35.8709 32.4617L36.1928 32.1887L35.9679 31.9111L36.0887 31.7021L36.0968 31.674C36.1183 31.599 36.1023 31.5132 36.0488 31.4166L36.1092 31.3122C36.1521 31.3042 36.2043 31.2989 36.266 31.2962C36.333 31.2749 36.4121 31.2468 36.5033 31.212L36.5676 31.2C36.4097 30.9721 36.3388 30.8299 36.3549 30.7737L36.5239 30.609C36.5293 30.5902 36.4838 30.5366 36.3874 30.4481L36.4842 30.1104C36.495 30.0729 36.5057 30.0354 36.5165 29.9979C36.546 29.9658 36.5782 29.9243 36.6131 29.8734C36.6667 29.8279 36.7404 29.8185 36.8342 29.8454L36.9066 29.8053C36.9153 29.1379 36.9331 28.7574 36.96 28.6636L37.0647 28.5109L37.1774 28.3301L37.3265 27.9162C37.3507 27.9028 37.3748 27.8894 37.3989 27.876C37.4472 27.8493 37.5049 27.8252 37.5719 27.8038L37.4194 27.4861C37.4276 27.3869 37.4518 27.3025 37.492 27.2329C37.5164 26.9354 37.5475 26.721 37.5851 26.5897C37.6012 26.5334 37.6334 26.4919 37.6817 26.4652C37.7005 26.4705 37.7232 26.4974 37.75 26.5456C37.7903 26.476 37.8185 26.413 37.8346 26.3568C37.8695 26.3059 37.8896 26.271 37.895 26.2523C37.9031 26.1531 37.9099 26.0942 37.9153 26.0754C37.926 26.0379 37.9166 26.0352 37.8871 26.0674L38.2175 25.34C38.247 25.3079 38.2765 25.2757 38.306 25.2436C38.3355 25.2115 38.3651 25.1793 38.3946 25.1472L38.3747 24.8979C38.3373 24.7451 38.3213 24.6593 38.3267 24.6406C38.3321 24.6218 38.4139 24.5133 38.5723 24.3151L38.8658 24.2471C38.8257 24.1747 38.7493 24.1223 38.6368 24.0901C38.6529 24.0338 38.6597 23.9748 38.6571 23.9132C38.6732 23.8569 38.6893 23.8007 38.7055 23.7444C38.7969 23.4255 38.8708 23.2031 38.9272 23.0772C38.989 22.9326 39.0212 22.891 39.0238 22.9527L39.0079 22.7959C38.9999 22.753 39.004 22.7034 39.0201 22.6471C39.0739 22.4596 39.2642 22.433 39.5911 22.5673L39.7437 22.672C39.8214 22.7551 39.8696 22.7994 39.8883 22.8048L40.017 22.7808C40.0599 22.7728 40.1095 22.7768 40.1657 22.793C40.2059 22.8654 40.2487 22.9284 40.2942 22.982C40.4924 23.1404 40.629 23.2303 40.704 23.2518C40.7415 23.2626 40.7925 23.2264 40.8569 23.1434C40.9373 23.1462 41.0056 23.1556 41.0619 23.1717C41.1236 23.1691 41.1892 23.1879 41.2589 23.2282C41.2964 23.239 41.3566 23.3476 41.4395 23.554C41.4982 23.7739 41.537 23.8865 41.5557 23.8918C41.5557 23.8918 41.6804 23.8464 41.9297 23.7555C42.1416 23.6539 42.2542 23.6151 42.2676 23.6392L42.4564 23.7238C42.4752 23.7292 42.5208 23.7118 42.5932 23.6717C42.679 23.6557 42.7312 23.6504 42.75 23.6558C42.825 23.6773 42.8558 23.747 42.8423 23.8649C42.8287 23.9828 42.9037 24.0754 43.0671 24.1425L43.1515 24.1667C43.2106 24.1025 43.2454 24.0516 43.2562 24.0141L43.3687 24.0463L44.1362 24.4491C44.23 24.476 44.2755 24.5296 44.2728 24.61L44.3007 24.8312C44.6063 24.7564 44.7404 24.7137 44.7029 24.7029C44.7484 24.7566 44.8233 24.8491 44.9277 24.9805L45.225 25.218C45.2839 25.2958 45.3026 25.3722 45.2811 25.4472C45.2649 25.5035 45.2394 25.5571 45.2045 25.608L45.1079 25.7325C45.0757 25.845 45.2123 25.935 45.5177 26.0023L45.8835 26.1071C45.8781 26.1259 45.8674 26.1634 45.8512 26.2197C45.8592 26.2626 45.8645 26.3148 45.8672 26.3765C45.8993 26.406 45.9194 26.4422 45.9274 26.4851C45.9541 26.5334 45.9809 26.5816 46.0076 26.6299C46.1119 26.9034 46.156 27.0682 46.1398 27.1245C46.1237 27.1808 46.0915 27.2223 46.0432 27.2491L46.0552 27.3134C46.0632 27.3563 46.0618 27.3965 46.0511 27.434L45.7735 27.6589C45.7304 27.8089 45.8482 27.9645 46.1268 28.1256L46.0825 28.1738C46.0878 28.2971 46.0716 28.4244 46.0339 28.5556L46.0861 28.6924L46.0296 28.8893L46.0536 29.018L45.8076 29.7696C45.7111 29.8231 45.6186 29.898 45.53 29.9944C45.5246 30.0132 45.5273 30.0748 45.5379 30.1794C45.594 30.3376 45.5737 30.5144 45.4771 30.71L45.155 31.1962C45.1442 31.2337 45.1281 31.2899 45.1066 31.365C45.0851 31.44 45.0515 31.5217 45.0058 31.6101C44.9253 31.7494 44.7978 31.9463 44.6233 32.2007L44.4061 32.3211C44.3899 32.5194 44.3455 32.6387 44.2731 32.6788C44.1953 32.7377 44.1538 32.7765 44.1484 32.7953C44.0974 32.9024 44.0745 33.0177 44.0797 33.141L43.6734 33.3898C43.6627 33.4273 43.6425 33.4622 43.613 33.4943C43.5755 33.4835 43.4951 33.4808 43.3718 33.486C43.3235 33.5128 43.2511 33.6239 43.1544 33.8195C43.1141 33.8892 43.0203 33.9333 42.8728 33.9519C42.7924 33.9492 42.7281 33.9612 42.6798 33.9879C42.6557 34.0013 42.6316 34.0147 42.6074 34.028C42.5779 34.0602 42.4921 34.1472 42.3499 34.2891C42.3257 34.3025 42.0094 34.3437 41.401 34.4128L41.0272 34.3361L40.5085 34.3396C40.4764 34.3101 40.4094 34.2605 40.3077 34.1907L40.1308 34.1704C40.0691 34.173 40.0196 34.169 39.982 34.1582L39.6486 33.9408L39.2507 33.7354L39.0819 33.687C38.9319 33.644 38.7603 33.676 38.5673 33.783L38.426 34.3819C38.3965 34.414 38.3214 34.4635 38.2007 34.5304C38.2006 34.6725 38.1844 34.7998 38.1521 34.9123C38.1252 35.0061 38.101 35.0905 38.0795 35.1655C38.0418 35.2968 38.0082 35.3785 37.9787 35.4106L37.9059 35.8769C37.804 35.9492 37.7477 36.0041 37.7369 36.0416L37.6277 36.741C37.4936 36.7838 37.4051 36.8802 37.3621 37.0302C37.3191 37.1803 37.3136 37.2701 37.3457 37.2996L37.3939 37.3439C36.9827 38.5656 36.6697 39.3386 36.455 39.6627C36.471 39.7485 36.4964 39.8369 36.5311 39.9281L36.4827 40.0969ZM39.6864 23.7212C39.7588 23.6811 39.7884 23.6489 39.775 23.6248L39.6142 23.5483L39.5619 23.6246L39.6864 23.7212ZM39.3606 23.9018L39.433 23.8617C39.4599 23.7679 39.4641 23.6473 39.4454 23.4999C39.3489 23.5534 39.2899 23.6176 39.2684 23.6927L39.2481 23.8695L39.3606 23.9018ZM41.9451 24.5515C41.996 24.5864 42.0603 24.5744 42.1381 24.5155C42.1113 24.4673 42.0671 24.4445 42.0055 24.4471C41.9813 24.4604 41.9612 24.4953 41.9451 24.5515ZM43.8936 25.9324C43.9231 25.9002 43.9245 25.86 43.8977 25.8118C43.871 25.7635 43.8335 25.7527 43.7852 25.7795C43.7637 25.8545 43.7998 25.9055 43.8936 25.9324ZM41.2242 25.8977L41.2684 25.8495C41.2658 25.7878 41.2364 25.7489 41.1801 25.7328C41.1211 25.7971 41.0795 25.8359 41.0553 25.8493L41.2242 25.8977ZM39.386 31.0339C39.386 31.0339 39.4476 31.0312 39.5709 31.026L39.6996 31.002C39.7317 31.0315 39.8041 31.0624 39.9166 31.0947L40.206 31.1472C40.3186 31.1795 40.3761 31.2264 40.3788 31.2881C40.5021 31.2828 40.5825 31.2856 40.62 31.2964L40.8289 31.4172C40.8664 31.4279 40.9308 31.4159 41.0219 31.3812C41.0943 31.341 41.1399 31.3237 41.1587 31.329C41.1587 31.329 41.1814 31.3559 41.2269 31.4095C41.2645 31.4203 41.3556 31.3855 41.5004 31.3052C41.656 31.1875 41.7646 31.1273 41.8262 31.1246C42.0142 30.7523 42.1015 30.554 42.0881 30.5299L42.2815 30.0677C42.3701 29.9713 42.4667 29.8468 42.5714 29.6941L42.6481 29.3203C42.667 29.1836 42.6778 29.0751 42.6806 28.9947C42.7075 28.9009 42.729 28.8259 42.7451 28.7696C42.855 28.7402 42.9636 28.68 43.0709 28.589C43.0924 28.514 43.0577 28.4228 42.9667 28.3155L42.79 28.0822C42.8249 28.0313 42.8531 27.9683 42.8746 27.8933C42.9284 27.7057 42.8789 27.5596 42.7263 27.455C42.745 27.4603 42.7571 27.4536 42.7625 27.4349C42.7786 27.3786 42.7332 27.2539 42.6261 27.0609L42.4536 26.7069C42.4161 26.6962 42.3906 26.6787 42.3773 26.6546C42.3049 26.6947 42.2606 26.7429 42.2445 26.7992L41.9912 26.7266C41.9403 26.6917 41.868 26.6608 41.7742 26.6339C41.3241 26.5048 41.0748 26.5247 41.0264 26.6935L41.0744 26.9508C41.0636 26.9884 40.9765 27.0446 40.8129 27.1194C40.8717 27.3393 40.8876 27.4961 40.8607 27.5899C40.7882 27.772 40.6554 27.8456 40.4625 27.8106C40.4677 27.9339 40.4904 28.0317 40.5306 28.1041C40.5278 28.1846 40.5076 28.2904 40.4699 28.4217C40.4377 28.5342 40.4 28.6655 40.357 28.8156L40.2765 28.8838L40.1959 29.1652L40.1917 29.2858C40.1943 29.3474 40.1849 29.4158 40.1634 29.4908C40.1526 29.5283 40.1218 29.5296 40.0709 29.4947C40.1378 29.6154 40.0922 29.7038 39.934 29.7599L39.97 29.953C39.7876 30.0225 39.6884 30.0854 39.6723 30.1416L39.6963 30.2703L39.7242 30.4914C39.5016 30.6306 39.3769 30.7471 39.35 30.8409L39.2896 30.9453L39.386 31.0339ZM38.2409 26.1079C38.2971 26.124 38.3414 26.0758 38.3737 25.9633C38.3362 25.9525 38.2933 25.9605 38.245 25.9873C38.2209 26.0007 38.2195 26.0409 38.2409 26.1079ZM44.5345 28.3693C44.5587 28.3559 44.5761 28.3305 44.5869 28.2929C44.603 28.2367 44.5736 28.1978 44.4985 28.1763C44.4636 28.2272 44.4756 28.2915 44.5345 28.3693ZM38.8429 27.1939C38.9099 27.1726 38.9542 27.1244 38.9757 27.0493C38.9436 27.0198 38.9034 27.0185 38.8551 27.0452C38.831 27.0586 38.8269 27.1082 38.8429 27.1939ZM45.0283 29.0894L45.0927 29.0774C45.1114 29.0828 45.1329 29.0788 45.157 29.0654L45.1249 28.9649C45.1008 28.9782 45.0861 28.9943 45.0807 29.0131C45.0753 29.0318 45.0579 29.0573 45.0283 29.0894ZM44.3806 29.5431C44.4048 29.5297 44.4597 29.515 44.5455 29.499C44.5321 29.4749 44.4852 29.4614 44.4048 29.4587L44.3806 29.5431ZM44.9303 30.7055L45.0108 30.6372C44.9974 30.6131 45.0042 30.5541 45.0311 30.4603C45.0071 30.3316 44.9294 30.2485 44.7981 30.2108L44.7418 30.1947C44.6668 30.1732 44.581 30.1892 44.4845 30.2427L44.4684 30.299C44.5943 30.3554 44.7483 30.4909 44.9303 30.7055ZM37.1832 30.6458C37.2127 30.6137 37.2141 30.5735 37.1874 30.5252C37.1794 30.4823 37.1392 30.4809 37.0668 30.5211C37.0506 30.5773 37.0895 30.6189 37.1832 30.6458ZM39.2608 31.5765C39.3117 31.6114 39.3613 31.6154 39.4096 31.5887C39.4337 31.5753 39.4378 31.5257 39.4218 31.44C39.3843 31.4292 39.3306 31.4747 39.2608 31.5765ZM42.9183 32.6253C42.9692 32.6601 43.0336 32.6481 43.1113 32.5893C43.098 32.5651 43.0725 32.5477 43.035 32.5369C42.9787 32.5208 42.9398 32.5502 42.9183 32.6253ZM40.2975 32.2087L40.2654 32.1081L40.2292 32.1282L40.2412 32.1925L40.2975 32.2087ZM40.6347 32.7316L40.7032 32.599L40.663 32.5266L40.5304 32.4581L40.4218 32.5183C40.4352 32.5425 40.4365 32.5733 40.4258 32.6108L40.6347 32.7316ZM37.6355 32.7851C37.673 32.7958 37.7038 32.7945 37.728 32.7811L37.7683 32.6404L37.6237 32.5076C37.6853 32.505 37.7122 32.4112 37.7044 32.2263C37.7339 32.1942 37.7648 32.1218 37.797 32.0093L37.3709 32.0089L37.3306 32.1496C37.301 32.1817 37.3304 32.2916 37.4187 32.4793C37.5257 32.6724 37.598 32.7743 37.6355 32.7851ZM40.5815 33.6603L40.6982 33.5719L40.5656 33.5035L40.4771 33.5999C40.4905 33.624 40.5253 33.6441 40.5815 33.6603ZM40.9554 33.737L41.072 33.6487L40.8751 33.5922L40.9554 33.737ZM39.4359 33.5144C39.5055 33.5547 39.5645 33.5615 39.6128 33.5347L39.5726 33.4623C39.4681 33.4729 39.4225 33.4903 39.4359 33.5144ZM36.8372 35.1442L36.777 35.0356C36.7395 35.0249 36.7087 35.0262 36.6845 35.0395L36.8372 35.1442ZM36.7081 35.5944C36.7377 35.5622 36.739 35.522 36.7123 35.4738C36.6989 35.4496 36.6493 35.4456 36.5635 35.4616C36.5474 35.5178 36.5956 35.5621 36.7081 35.5944ZM37.3753 35.8161C37.3994 35.8027 37.4223 35.7585 37.4438 35.6835L37.3312 35.6512C37.3446 35.6754 37.3593 35.7303 37.3753 35.8161ZM35.0302 37.0923C35.0544 37.079 35.0785 37.0656 35.1026 37.0522C35.1455 37.0442 35.1791 37.0335 35.2032 37.0201L35.0586 36.8873L34.9862 36.9275C35.0022 37.0132 35.0169 37.0682 35.0302 37.0923ZM34.4756 36.9029C34.5024 36.9511 34.5399 36.9619 34.5882 36.9351L34.5842 36.8427C34.5655 36.8373 34.5293 36.8573 34.4756 36.9029ZM35.5832 38.9864C35.6128 38.9543 35.6141 38.9141 35.5874 38.8658C35.574 38.8417 35.5244 38.8376 35.4386 38.8536C35.4225 38.9099 35.4707 38.9542 35.5832 38.9864Z" fill="#052930"/>
<defs>
<linearGradient id="paint0_linear_11_877" x1="39.2794" y1="7.96491" x2="26.545" y2="52.3752" gradientUnits="userSpaceOnUse">
<stop stop-color="#D9D9D9"/>
<stop offset="0.495" stop-color="#B2B2B2"/>
<stop offset="1" stop-color="#D9D9D9"/>
</linearGradient>
</defs>
</svg>
