<svg width="66" height="61" viewBox="0 0 66 61" fill="none" xmlns="http://www.w3.org/2000/svg">
<path d="M37.1898 9.50473C38.2458 8.72658 39.7524 9.15859 40.2356 10.3781L43.0235 17.4146C43.2986 18.1089 43.9377 18.5921 44.6807 18.6676L53.0131 19.5142C54.4611 19.6613 55.2721 21.2565 54.5377 22.5131L51.4244 27.8401C50.9626 28.6303 51.0961 29.6332 51.7486 30.275L56.7244 35.1702C57.8547 36.2821 57.3035 38.2043 55.7558 38.5483L48.942 40.0628C48.0485 40.2614 47.4039 41.0411 47.3768 41.9559L47.1941 48.1233C47.151 49.5781 45.618 50.5011 44.312 49.8586L36.7971 46.161C36.127 45.8313 35.329 45.9025 34.7277 46.3455L28.6346 50.8354C27.5786 51.6135 26.072 51.1815 25.5888 49.962L22.8009 42.9255C22.5258 42.2312 21.8867 41.748 21.1437 41.6725L12.8113 40.8259C11.3633 40.6788 10.5523 39.0836 11.2867 37.827L14.4 32.5C14.8618 31.7098 14.7283 30.7069 14.0758 30.0651L9.09995 25.1699C7.96969 24.058 8.52086 22.1358 10.0686 21.7918L16.8824 20.2773C17.7759 20.0787 18.4205 19.299 18.4476 18.3842L18.6303 12.2168C18.6734 10.762 20.2064 9.83897 21.5124 10.4815L29.0273 14.1791C29.6974 14.5088 30.4954 14.4376 31.0967 13.9946L37.1898 9.50473Z" fill="url(#paint0_linear_11_876)"/>
<path d="M17.3699 34.62C17.2574 34.5878 17.165 34.5207 17.0927 34.4188L17.1173 33.9082C17.1468 33.8761 17.1763 33.8439 17.2058 33.8118C17.2354 33.7797 17.2676 33.7381 17.3024 33.6873L17.2344 33.3937L17.3318 32.4169C17.3104 32.3498 17.2917 32.2734 17.2757 32.1877C17.2811 32.1689 17.3227 32.1301 17.4005 32.0712C17.4836 31.9935 17.5279 31.9453 17.5333 31.9266L17.3808 31.6088C17.3542 31.4185 17.3972 31.2685 17.5099 31.1587C17.4831 31.1104 17.4497 31.0501 17.4096 30.9777C17.3882 30.9106 17.3601 30.8316 17.3254 30.7404L17.4826 30.2983C17.4424 30.2259 17.4211 30.1589 17.4184 30.0972C17.5016 30.0196 17.5834 29.9111 17.664 29.7718C17.656 29.7289 17.6319 29.6713 17.5918 29.5989C17.5758 29.5131 17.5625 29.4179 17.5519 29.3134L17.6369 28.6984L17.5287 28.3324L17.5895 27.8018L17.7266 27.3235C17.8499 27.3183 17.9196 27.2875 17.9358 27.2312C17.9519 27.175 17.8958 27.0168 17.7674 26.7567L17.828 26.4391L17.8602 26.3266C17.7987 26.1872 17.7654 25.9848 17.7603 25.7194C17.814 25.6739 17.8382 25.5895 17.8329 25.4662L17.8857 24.9637C17.8455 24.8913 17.8242 24.8243 17.8215 24.7627L17.8139 24.3646C17.838 24.3513 17.8689 24.2789 17.9065 24.1476L18.0482 23.1226C18.0027 23.0689 17.9733 22.959 17.9601 22.7928L18.1978 22.2825C18.2623 22.0574 18.2705 21.8872 18.2224 21.7719L18.0095 21.5587C18.0473 21.2853 18.081 21.0615 18.1107 20.8874C18.1591 20.7186 18.2034 20.5993 18.2437 20.5297C18.2491 20.5109 18.2451 20.4895 18.2317 20.4653C18.2371 20.4466 18.2357 20.4158 18.2277 20.3729C18.1876 20.3005 18.1729 20.2455 18.1837 20.208C18.1998 20.1517 18.2682 20.0901 18.3889 20.0233C18.2791 19.9106 18.2283 19.8047 18.2364 19.7055C18.2633 19.6117 18.2902 19.5179 18.3171 19.4242L18.326 18.5437C18.3126 18.5196 18.3408 18.4566 18.4106 18.3548C18.4213 18.3173 18.4133 18.2744 18.3866 18.2262L18.4954 17.9529C18.5061 17.9154 18.4566 17.8403 18.3469 17.7276C18.3576 17.6901 18.359 17.6499 18.351 17.607C18.3671 17.5507 18.3766 17.4824 18.3793 17.402L18.267 17.1567C18.3529 16.9986 18.4683 16.8794 18.6131 16.7992L18.7819 16.8476C18.8382 16.8637 18.8904 16.8584 18.9387 16.8317C19.0031 16.7486 19.0353 16.7071 19.0353 16.7071C19.1852 16.8922 19.2508 16.982 19.232 16.9767C19.2883 16.9928 19.3031 16.9767 19.2763 16.9285C19.4424 17.0573 19.5133 17.1284 19.4892 17.1417L19.7827 17.0737C19.9166 17.173 20.0693 17.2776 20.2407 17.3877C20.2783 17.3985 20.3494 17.3275 20.454 17.1748L20.659 17.2032C20.6777 17.3506 20.6963 17.427 20.7151 17.4324C20.7634 17.4056 20.821 17.3816 20.888 17.3602C20.9738 17.3442 21.069 17.3309 21.1735 17.3202C21.211 17.331 21.2673 17.3471 21.3423 17.3686C21.4227 17.3714 21.5125 17.3768 21.6117 17.385C21.6626 17.4199 21.6692 17.503 21.6315 17.6343L21.5066 17.9638C21.4502 18.0897 21.4112 18.1902 21.3897 18.2652C21.3682 18.3402 21.3427 18.3938 21.3132 18.426L21.3171 18.5184L21.2848 18.631L21.1721 18.8118C21.1667 18.8305 21.2055 18.8721 21.2886 18.9365L21.2803 19.1777C21.3151 19.2689 21.3217 19.352 21.3002 19.427L21.1471 19.7485C21.1202 19.8423 21.1696 19.9884 21.2954 20.1868L21.1138 20.9264L21.1459 21.0269C21.1539 21.0698 21.1592 21.1221 21.1618 21.1837C21.1644 21.2454 21.1644 21.3164 21.1616 21.3968L21.1535 21.425C21.1213 21.5375 21.0086 21.6473 20.8155 21.7543C20.869 21.8508 20.9078 21.9634 20.9318 22.0921C20.9558 22.2208 20.9838 22.3709 21.0158 22.5425L20.9554 22.6469C20.9205 22.6978 20.895 22.7514 20.8788 22.8077L20.6215 22.8557C20.5247 23.1933 20.4384 23.7065 20.3627 24.3952C20.36 24.4756 20.3961 24.5266 20.4711 24.5481L20.6801 24.6689L20.8569 24.6892C20.7361 24.8981 20.657 24.9972 20.6195 24.9864C20.6275 25.0293 20.6328 25.0816 20.6354 25.1433C20.6434 25.1861 20.6487 25.2384 20.6513 25.3001C20.6619 25.4046 20.6538 25.5038 20.6269 25.5975C20.6242 25.6779 20.6214 25.7583 20.6186 25.8388C20.6025 25.895 20.4751 25.9498 20.2366 26.0032C20.2874 26.0381 20.3664 26.1521 20.4734 26.3452C20.5269 26.4417 20.5376 26.5462 20.5053 26.6588L20.4569 26.8276L20.2399 26.7349C20.1836 26.7188 20.0924 26.7535 19.9664 26.8392L20.1311 27.0082L20.0144 27.0965C20.0412 27.1448 20.0585 27.1904 20.0665 27.2333C20.2193 27.1959 20.352 27.1933 20.4645 27.2256C20.5021 27.2364 20.5194 27.2819 20.5167 27.3624C20.5139 27.4428 20.5407 27.491 20.597 27.5072L20.5845 27.869C20.6434 27.9468 20.6594 28.0325 20.6325 28.1263C20.6218 28.1638 20.5815 28.2335 20.5117 28.3353L20.5157 28.4277C20.529 28.4519 20.5545 28.4693 20.592 28.4801C20.7608 28.5285 20.8775 28.4401 20.942 28.2151C20.9582 28.1588 20.9542 28.0663 20.9302 27.9377L20.8018 27.7486L20.8421 27.6079L20.9346 27.604C20.9346 27.604 20.9319 27.5423 20.9267 27.419L20.7579 27.3706C20.7579 27.3706 20.7968 27.3412 20.8746 27.2823C20.8666 27.2394 20.8814 27.1523 20.919 27.021L21.1003 26.7076L21.2695 26.3298C21.2668 26.2682 21.2951 26.1342 21.3543 25.9279C21.365 25.8904 21.4093 25.8422 21.4871 25.7833C21.5461 25.719 21.5783 25.6775 21.5837 25.6588L21.4914 25.4496C21.5397 25.4229 21.6027 25.38 21.6805 25.3211C21.7824 25.2489 21.8937 25.1793 22.0144 25.1124L21.8979 24.9877C21.914 24.9314 21.9329 24.8657 21.9544 24.7907C21.9759 24.7157 21.988 24.638 21.9908 24.5576L22.1116 24.3486C22.1465 24.2977 22.1693 24.2535 22.1801 24.216C22.1908 24.1785 22.1989 24.1504 22.2043 24.1316L22.3737 23.5408C22.406 23.4283 22.461 23.3426 22.5388 23.2837L22.7078 23.119C22.748 23.0493 22.7602 22.9716 22.7442 22.8858C22.8246 22.8886 22.9131 22.8632 23.0096 22.8097C23.1115 22.7374 23.1638 22.6611 23.1666 22.5807L23.2109 22.5325C23.227 22.4762 23.2083 22.3998 23.1548 22.3033C23.0772 22.2201 23.0518 22.1317 23.0787 22.0379L23.0948 21.9816L23.2558 21.8451C23.3148 21.7808 23.347 21.7393 23.3524 21.7205L23.3044 21.4632C23.3206 21.2649 23.3288 21.1657 23.3288 21.1657C23.3475 21.1711 23.4173 21.0693 23.5381 20.8604L23.5584 20.6835C23.5719 20.5656 23.5693 20.5039 23.5505 20.4986C23.7275 20.4478 23.9045 20.255 24.0818 19.9201C24.1488 19.8988 24.1904 19.8599 24.2065 19.8037C24.1556 19.7688 24.0994 19.6816 24.0379 19.5422C24.0915 19.4967 24.207 19.3065 24.3842 18.9716L24.3885 18.6379C24.5228 18.3111 24.6838 18.1746 24.8713 18.2283C24.9276 18.2445 24.9731 18.2981 25.0079 18.3893C25.0185 18.4938 25.0613 18.5568 25.1364 18.5784C25.2114 18.5999 25.2905 18.5718 25.3736 18.4942C25.4568 18.4165 25.5265 18.3858 25.5828 18.4019C25.6229 18.4743 25.6872 18.5333 25.7756 18.579L25.9324 18.563C25.994 18.5604 26.0436 18.5645 26.0811 18.5752C26.1937 18.6075 26.2566 18.6357 26.27 18.6598C26.3475 18.8851 26.4425 19.0138 26.5551 19.0461C26.6113 19.0622 26.6931 19.0248 26.8004 18.9337C26.9211 18.8668 26.9908 18.8361 27.0096 18.8415L27.0778 18.9219L27.5001 18.8299C27.5134 18.854 27.5764 18.8822 27.6889 18.9145C27.7077 18.9199 27.7184 18.9534 27.721 19.015L27.564 19.244C27.5157 19.2708 27.4473 19.3324 27.3588 19.4288C27.3586 19.5708 27.3022 19.7678 27.1894 20.0196C27.1786 20.0571 27.137 20.0959 27.0646 20.1361C26.9922 20.1762 26.9533 20.2056 26.9479 20.2244C26.9372 20.2619 26.9465 20.3356 26.9759 20.4455L26.9837 20.6305C26.9676 20.6867 26.9233 20.7349 26.8509 20.7751C26.7785 20.8152 26.7128 20.8674 26.6538 20.9317L26.4724 21.4582C26.4401 21.5707 26.4092 21.643 26.3797 21.6752C26.334 21.7636 26.2884 21.852 26.2428 21.9404C26.2159 22.0342 26.189 22.128 26.1621 22.2217C26.1406 22.2968 26.1191 22.3718 26.0975 22.4468C26.0948 22.5272 26.092 22.6076 26.0893 22.688C26.0705 22.6826 26.0491 22.6866 26.0249 22.7C26.0088 22.7563 25.99 22.8219 25.9685 22.897L25.9604 22.9251C25.9604 22.9251 25.9577 22.9345 25.9523 22.9532C25.9121 23.0229 25.8785 23.1046 25.8516 23.1984L25.9803 23.1744C26.0285 23.1476 26.07 23.1798 26.1048 23.271L26.0483 23.4679C26.0483 23.4679 25.9961 23.4732 25.8915 23.4839C25.854 23.4731 25.8206 23.4128 25.7912 23.3028C25.7858 23.3216 25.7536 23.3631 25.6946 23.4274C25.5713 23.4326 25.4855 23.4486 25.4372 23.4754C25.5015 23.5344 25.496 23.6242 25.4209 23.7447C25.3806 23.8144 25.3176 23.8572 25.2318 23.8732C25.347 23.9671 25.3777 24.1079 25.3239 24.2954L25.2192 24.4481L25.026 24.6972C25.026 24.6972 25.0019 24.7105 24.9536 24.7373C24.8786 24.7158 24.778 24.7479 24.652 24.8335C24.6787 24.8818 24.7578 24.9247 24.889 24.9624L24.8605 25.3805C24.8471 25.3563 24.7653 25.4648 24.615 25.7059C24.5854 25.738 24.5532 25.7795 24.5184 25.8304C24.5076 25.8679 24.4915 25.9242 24.4699 25.9992L24.4416 26.2042C24.4175 26.2176 24.3893 26.2806 24.357 26.3931C24.3301 26.4869 24.2831 26.6155 24.2159 26.7789C24.2052 26.8164 24.1877 26.8419 24.1636 26.8552C24.1475 26.9115 24.0442 27.024 23.8537 27.1927C23.8671 27.2168 23.8657 27.257 23.8496 27.3133C23.8093 27.3829 23.7168 27.4579 23.572 27.5381C23.5478 27.5515 23.5264 27.5555 23.5076 27.5501C23.5906 27.6145 23.6696 27.7285 23.7445 27.8921C23.7337 27.9296 23.6801 27.9751 23.5835 28.0286C23.4521 28.133 23.3864 28.1852 23.3864 28.1852C23.4265 28.2576 23.4479 28.3247 23.4505 28.3863C23.4183 28.4988 23.2895 28.5939 23.0643 28.6714L23.0318 28.997C22.9916 29.0666 22.9204 29.2086 22.8184 29.4229C22.8128 29.5838 22.751 29.7995 22.6328 30.07C22.6274 30.0888 22.5912 30.1089 22.5242 30.1302C22.433 30.165 22.3821 30.2011 22.3713 30.2386C22.4436 30.3406 22.4877 30.5054 22.5035 30.7333C22.407 30.7868 22.3265 30.855 22.2621 30.9381L22.1775 31.1269C22.1534 31.1403 22.1091 31.1885 22.0447 31.2716L21.8753 31.8624C21.7949 31.8596 21.7185 31.8783 21.6461 31.9184C21.5093 32.0416 21.4301 32.1407 21.4086 32.2157C21.4595 32.2506 21.4942 32.3418 21.5129 32.4892L21.3879 32.8187C21.3315 32.9447 21.2805 33.0518 21.2348 33.1402C21.2079 33.234 21.1891 33.2997 21.1784 33.3372L21.0093 33.5018L20.969 33.6425C20.9475 33.7175 20.9179 33.8207 20.8803 33.952C20.8426 34.0833 20.7848 34.2494 20.7069 34.4503C20.6587 34.4771 20.593 34.4583 20.51 34.3939C20.4617 34.4206 20.4376 34.434 20.4376 34.434L20.4252 34.7958C20.4277 34.9995 20.4208 35.1295 20.4047 35.1858L20.3886 35.242C20.3509 35.3733 20.2758 35.4228 20.1633 35.3906L20.095 35.3101C20.0629 35.2806 20.0281 35.2605 19.9905 35.2497C19.9101 35.2469 19.823 35.2321 19.7293 35.2052C19.6542 35.1837 19.5511 35.1541 19.4198 35.1165L19.3435 35.0642L19.259 35.0399L18.8892 35.0557C18.8517 35.0449 18.7512 34.9349 18.588 34.7257C18.4914 34.7792 18.3694 34.8153 18.222 34.8339L17.9206 34.717C17.8322 34.6714 17.7599 34.6405 17.7036 34.6244C17.6661 34.6136 17.6379 34.6055 17.6192 34.6002L17.3699 34.62ZM25.618 19.4472C25.6233 19.4284 25.6662 19.4204 25.7466 19.4232L25.5658 19.3105L25.4653 19.3425L25.618 19.4472ZM24.046 19.514L24.0379 19.5422L24.046 19.514ZM25.4554 21.2883C25.5679 21.3206 25.6376 21.2899 25.6645 21.1961L25.6486 21.0393C25.6701 20.9642 25.6742 20.9147 25.6608 20.8905C25.6073 20.794 25.5363 20.7229 25.4479 20.6773C25.4346 20.6531 25.4212 20.629 25.4078 20.6049C25.4186 20.5673 25.4079 20.5338 25.3757 20.5043C25.3624 20.4802 25.3369 20.4627 25.2994 20.452C25.1386 20.4465 25.0394 20.5094 25.0017 20.6406C25.0123 20.7452 25.0431 20.8149 25.094 20.8498C25.2145 20.925 25.2748 20.9625 25.2748 20.9625L25.2545 21.1394C25.2384 21.1957 25.3053 21.2453 25.4554 21.2883ZM19.9092 19.3935C19.9199 19.356 19.9119 19.3131 19.8852 19.2648C19.8772 19.222 19.837 19.2206 19.7646 19.2607C19.7859 19.3277 19.8341 19.372 19.9092 19.3935ZM19.278 19.3648L19.1655 19.3325L19.2377 19.5054L19.278 19.3648ZM24.2735 21.1626C24.3244 21.1975 24.3915 21.1761 24.4746 21.0985C24.4612 21.0743 24.4264 21.0542 24.3701 21.0381C24.3326 21.0273 24.3004 21.0688 24.2735 21.1626ZM26.0017 21.719L26.0822 21.6508L26.0259 21.6346L25.9736 21.711L26.0017 21.719ZM23.3368 21.1376L23.3288 21.1657L23.3368 21.1376ZM25.9163 22.7602L25.9484 22.8608C25.9699 22.7857 25.9954 22.7322 26.0249 22.7C25.982 22.708 25.9458 22.7281 25.9163 22.7602ZM24.2241 22.3968C24.275 22.4317 24.342 22.4103 24.4252 22.3326C24.4118 22.3085 24.377 22.2884 24.3207 22.2722C24.2832 22.2615 24.251 22.303 24.2241 22.3968ZM18.5123 25.5392L18.6933 25.4389C18.6505 25.3049 18.601 25.2298 18.5448 25.2136C18.4697 25.1921 18.4215 25.2189 18.3999 25.2939C18.4052 25.4172 18.4426 25.499 18.5123 25.5392ZM18.1507 25.3138C18.1694 25.3191 18.2029 25.3084 18.2512 25.2817L18.1507 25.3138ZM21.772 26.3826L21.7881 26.3263L21.6755 26.2941L21.6594 26.3503L21.772 26.3826ZM21.3733 27.0295L21.4538 26.9612C21.4083 26.9076 21.352 26.8914 21.285 26.9128C21.3251 26.9852 21.3546 27.0241 21.3733 27.0295ZM22.9605 27.9717C22.99 27.9396 22.9913 27.8994 22.9646 27.8511C22.9512 27.827 22.9016 27.8229 22.8158 27.8389C22.8372 27.906 22.8854 27.9502 22.9605 27.9717ZM18.6075 26.9062L18.7442 26.8541C18.7496 26.8353 18.7121 26.8246 18.6317 26.8218C18.6075 26.8352 18.5995 26.8633 18.6075 26.9062ZM18.8886 27.2C18.9395 27.2349 19.0065 27.2135 19.0897 27.1359C19.0629 27.0876 19.0254 27.0768 18.9771 27.1036C18.9289 27.1303 18.8994 27.1625 18.8886 27.2ZM21.1535 29.9199C21.1696 29.8636 21.1643 29.8113 21.1375 29.7631C21.1108 29.7148 21.0679 29.7228 21.0089 29.7871C20.9927 29.8433 21.0409 29.8876 21.1535 29.9199ZM19.2482 29.5562C19.3689 29.4893 19.4346 29.4371 19.4453 29.3996C19.4186 29.3514 19.4052 29.3272 19.4052 29.3272L19.176 29.3833L19.1437 29.4958L19.2482 29.5562ZM19.0264 30.2234C19.1176 30.1886 19.1712 30.1431 19.1874 30.0869L19.0548 30.0184C18.9582 30.0719 18.9019 30.1268 18.8858 30.1831L19.0264 30.2234ZM20.9264 31.9861C20.9773 32.021 21.0443 31.9996 21.1274 31.922C21.1007 31.8737 21.0632 31.8629 21.0149 31.8897C20.9666 31.9165 20.9371 31.9486 20.9264 31.9861ZM18.8281 31.6585C18.8522 31.6451 18.8697 31.6196 18.8804 31.5821C18.8965 31.5259 18.8577 31.4843 18.7639 31.4574C18.7344 31.4895 18.7558 31.5565 18.8281 31.6585ZM19.8728 32.2625C19.9103 32.2733 19.9719 32.2706 20.0577 32.2546L20.0981 32.114C20.0338 32.0549 19.9829 32.02 19.9454 32.0093C19.9079 31.9985 19.8462 32.0012 19.7604 32.0172L19.7201 32.1578C19.7844 32.2169 19.8353 32.2517 19.8728 32.2625ZM19.4417 33.235C19.4524 33.1975 19.4444 33.1546 19.4177 33.1063C19.4097 33.0634 19.3695 33.0621 19.2971 33.1022C19.2809 33.1585 19.3291 33.2027 19.4417 33.235ZM18.2307 34.1666C18.3165 34.1506 18.3714 34.1359 18.3956 34.1225C18.4063 34.085 18.4171 34.0475 18.4278 34.01C18.4573 33.9778 18.4922 33.9269 18.5325 33.8573L18.6452 33.6765C18.6749 33.5023 18.6053 33.391 18.4365 33.3426C18.3615 33.3211 18.2998 33.3237 18.2516 33.3505L18.2112 33.4911L18.3277 33.6159C18.3277 33.6159 18.2928 33.6668 18.223 33.7685L18.1303 33.9856C18.141 34.0901 18.1744 34.1504 18.2307 34.1666ZM26.4367 37.2199C26.3241 37.1876 26.2317 37.1205 26.1595 37.0186L26.1841 36.5081C26.2136 36.4759 26.2431 36.4438 26.2726 36.4117C26.3021 36.3795 26.3343 36.338 26.3692 36.2871L26.3012 35.9936L26.3986 35.0167C26.3772 34.9497 26.3585 34.8733 26.3425 34.7875C26.3479 34.7688 26.3895 34.7299 26.4673 34.671C26.5504 34.5934 26.5947 34.5452 26.6001 34.5264L26.4476 34.2087C26.421 34.0184 26.464 33.8683 26.5767 33.7585C26.5499 33.7103 26.5165 33.6499 26.4763 33.5775C26.455 33.5105 26.4269 33.4314 26.3921 33.3402L26.5493 32.8982C26.5092 32.8258 26.4878 32.7587 26.4852 32.6971C26.5684 32.6194 26.6502 32.511 26.7308 32.3717C26.7228 32.3288 26.6987 32.2711 26.6586 32.1987C26.6426 32.113 26.6293 32.0178 26.6186 31.9133L26.7036 31.2982L26.5954 30.9323L26.6563 30.4017L26.7934 29.9234C26.9167 29.9181 26.9864 29.8874 27.0025 29.8311C27.0187 29.7748 26.9625 29.6166 26.8341 29.3565L26.8948 29.039L26.927 28.9265C26.8655 28.787 26.8322 28.5846 26.8271 28.3193C26.8807 28.2738 26.9049 28.1894 26.8997 28.0661L26.9524 27.5636C26.9123 27.4912 26.8909 27.4242 26.8883 27.3625L26.8806 26.9645C26.9048 26.9511 26.9357 26.8788 26.9733 26.7475L27.115 25.7224C27.0695 25.6688 27.0401 25.5589 27.0269 25.3927L27.2646 24.8823C27.3291 24.6573 27.3373 24.4871 27.2892 24.3718L27.0763 24.1585C27.1141 23.8852 27.1478 23.6614 27.1774 23.4872C27.2258 23.3184 27.2702 23.1992 27.3105 23.1295C27.3158 23.1108 27.3118 23.0893 27.2985 23.0652C27.3038 23.0464 27.3025 23.0156 27.2945 22.9727C27.2544 22.9003 27.2397 22.8454 27.2505 22.8079C27.2666 22.7516 27.335 22.69 27.4557 22.6231C27.3459 22.5104 27.2951 22.4045 27.3032 22.3054C27.3301 22.2116 27.357 22.1178 27.3839 22.024L27.3928 21.1436C27.3794 21.1194 27.4076 21.0565 27.4774 20.9547C27.4881 20.9172 27.4801 20.8743 27.4534 20.826L27.5622 20.5528C27.5729 20.5152 27.5234 20.4402 27.4136 20.3275C27.4244 20.29 27.4258 20.2498 27.4178 20.2069C27.4339 20.1506 27.4434 20.0823 27.4461 20.0019L27.3338 19.7565C27.4197 19.5985 27.5351 19.4793 27.6799 19.399L27.8487 19.4474C27.9049 19.4636 27.9572 19.4583 28.0055 19.4315C28.0699 19.3485 28.1021 19.307 28.1021 19.307C28.252 19.4921 28.3176 19.5819 28.2988 19.5765C28.3551 19.5927 28.3698 19.5766 28.3431 19.5283C28.5091 19.6571 28.5801 19.7282 28.556 19.7416L28.8495 19.6735C28.9834 19.7728 29.1361 19.8775 29.3075 19.9876C29.345 19.9983 29.4161 19.9274 29.5208 19.7747L29.7258 19.803C29.7444 19.9504 29.7631 20.0269 29.7819 20.0322C29.8301 20.0055 29.8878 19.9814 29.9548 19.96C30.0406 19.944 30.1358 19.9307 30.2403 19.9201C30.2778 19.9309 30.3341 19.947 30.4091 19.9685C30.4895 19.9713 30.5793 19.9767 30.6785 19.9848C30.7293 20.0197 30.736 20.1028 30.6983 20.2341L30.5734 20.5637C30.517 20.6896 30.478 20.7901 30.4565 20.8651C30.435 20.9401 30.4095 20.9937 30.38 21.0258L30.3839 21.1183L30.3516 21.2308L30.2389 21.4116C30.2335 21.4304 30.2723 21.472 30.3553 21.5364L30.3471 21.7776C30.3818 21.8687 30.3885 21.9518 30.3669 22.0269L30.2139 22.3483C30.187 22.4421 30.2364 22.5882 30.3622 22.7867L30.1806 23.5263L30.2126 23.6268C30.2206 23.6697 30.226 23.722 30.2286 23.7836C30.2312 23.8453 30.2311 23.9163 30.2284 23.9967L30.2203 24.0248C30.188 24.1374 30.0754 24.2471 29.8823 24.3542C29.9358 24.4507 29.9746 24.5633 29.9986 24.692C30.0226 24.8207 30.0506 24.9708 30.0826 25.1423L30.0221 25.2468C29.9873 25.2977 29.9617 25.3513 29.9456 25.4075L29.6883 25.4555C29.5915 25.7932 29.5052 26.3063 29.4295 26.9951C29.4267 27.0755 29.4629 27.1264 29.5379 27.1479L29.7468 27.2688L29.9237 27.289C29.8029 27.498 29.7237 27.5971 29.6862 27.5863C29.6942 27.6292 29.6995 27.6815 29.7022 27.7431C29.7102 27.786 29.7155 27.8383 29.7181 27.8999C29.7287 28.0045 29.7206 28.1036 29.6937 28.1974C29.6909 28.2778 29.6882 28.3582 29.6854 28.4386C29.6693 28.4949 29.5419 28.5497 29.3033 28.6031C29.3542 28.638 29.4332 28.752 29.5402 28.945C29.5937 29.0416 29.6043 29.1461 29.5721 29.2586L29.5237 29.4275L29.3067 29.3348C29.2504 29.3186 29.1592 29.3534 29.0332 29.439L29.1978 29.6081L29.0812 29.6964C29.1079 29.7447 29.1253 29.7902 29.1333 29.8331C29.2861 29.7958 29.4188 29.7932 29.5313 29.8255C29.5688 29.8362 29.5862 29.8818 29.5835 29.9622C29.5807 30.0426 29.6075 30.0909 29.6637 30.107L29.6513 30.4688C29.7102 30.5466 29.7262 30.6324 29.6993 30.7262C29.6886 30.7637 29.6483 30.8333 29.5785 30.9351L29.5824 31.0276C29.5958 31.0517 29.6213 31.0692 29.6588 31.0799C29.8276 31.1283 29.9443 31.04 30.0088 30.8149C30.0249 30.7587 30.021 30.6662 29.997 30.5375L29.8685 30.3484L29.9089 30.2078L30.0013 30.2038C30.0013 30.2038 29.9987 30.1422 29.9935 30.0189L29.8247 29.9705C29.8247 29.9705 29.8636 29.941 29.9413 29.8821C29.9333 29.8393 29.9482 29.7522 29.9858 29.6209L30.167 29.3075L30.3362 28.9297C30.3336 28.8681 30.3619 28.7341 30.4211 28.5278C30.4318 28.4902 30.4761 28.442 30.5539 28.3832C30.6129 28.3189 30.6451 28.2774 30.6505 28.2586L30.5582 28.0495C30.6065 28.0227 30.6695 27.9799 30.7473 27.921C30.8492 27.8487 30.9605 27.7792 31.0812 27.7123L30.9647 27.5875C30.9808 27.5313 30.9996 27.4656 31.0212 27.3906C31.0427 27.3156 31.0548 27.2378 31.0576 27.1574L31.1784 26.9485C31.2133 26.8976 31.2361 26.8534 31.2468 26.8159C31.2576 26.7784 31.2657 26.7502 31.2711 26.7315L31.4405 26.1407C31.4727 26.0281 31.5278 25.9424 31.6055 25.8835L31.7746 25.7188C31.8148 25.6492 31.827 25.5715 31.811 25.4857C31.8914 25.4885 31.9798 25.4631 32.0764 25.4096C32.1783 25.3373 32.2306 25.261 32.2334 25.1806L32.2777 25.1324C32.2938 25.0761 32.2751 24.9997 32.2216 24.9032C32.1439 24.82 32.1186 24.7315 32.1455 24.6377L32.1616 24.5815L32.3225 24.4449C32.3816 24.3807 32.4138 24.3392 32.4191 24.3204L32.3711 24.063C32.3874 23.8647 32.3955 23.7656 32.3955 23.7656C32.4143 23.7709 32.4841 23.6692 32.6049 23.4602L32.6252 23.2834C32.6387 23.1654 32.6361 23.1038 32.6173 23.0984C32.7942 23.0477 32.9713 22.8548 33.1485 22.52C33.2156 22.4986 33.2571 22.4598 33.2733 22.4035C33.2224 22.3686 33.1662 22.2815 33.1047 22.142C33.1583 22.0965 33.2737 21.9063 33.451 21.5715L33.4553 21.2378C33.5896 20.9109 33.7506 20.7744 33.9381 20.8282C33.9944 20.8443 34.0399 20.898 34.0747 20.9891C34.0853 21.0937 34.1281 21.1567 34.2031 21.1782C34.2782 21.1997 34.3572 21.1717 34.4404 21.094C34.5236 21.0164 34.5933 20.9856 34.6496 21.0017C34.6897 21.0741 34.754 21.1332 34.8424 21.1788L34.9992 21.1629C35.0608 21.1603 35.1104 21.1643 35.1479 21.1751C35.2604 21.2074 35.3234 21.2356 35.3368 21.2597C35.4143 21.4849 35.5093 21.6137 35.6219 21.6459C35.6781 21.6621 35.7599 21.6246 35.8672 21.5336C35.9879 21.4667 36.0576 21.4359 36.0763 21.4413L36.1446 21.5218L36.5668 21.4297C36.5802 21.4539 36.6432 21.4821 36.7557 21.5143C36.7745 21.5197 36.7852 21.5532 36.7878 21.6149L36.6308 21.8439C36.5825 21.8706 36.5141 21.9322 36.4256 22.0286C36.4254 22.1707 36.3689 22.3676 36.2561 22.6194C36.2454 22.657 36.2038 22.6958 36.1314 22.7359C36.059 22.776 36.0201 22.8055 36.0147 22.8242C36.004 22.8618 36.0133 22.9355 36.0427 23.0454L36.0505 23.2303C36.0344 23.2866 35.9901 23.3348 35.9177 23.3749C35.8453 23.4151 35.7796 23.4673 35.7206 23.5315L35.5391 24.058C35.5069 24.1706 35.476 24.2429 35.4465 24.275C35.4008 24.3634 35.3552 24.4518 35.3095 24.5402C35.2826 24.634 35.2557 24.7278 35.2289 24.8216C35.2073 24.8966 35.1858 24.9716 35.1643 25.0467C35.1616 25.1271 35.1588 25.2075 35.156 25.2879C35.1373 25.2825 35.1158 25.2865 35.0917 25.2999C35.0756 25.3561 35.0568 25.4218 35.0352 25.4968L35.0272 25.525C35.0272 25.525 35.0245 25.5343 35.0191 25.5531C34.9788 25.6227 34.9453 25.7044 34.9184 25.7982L35.047 25.7742C35.0953 25.7475 35.1368 25.7797 35.1716 25.8708L35.1151 26.0678C35.1151 26.0678 35.0628 26.0731 34.9583 26.0837C34.9208 26.073 34.8873 26.0126 34.858 25.9027C34.8526 25.9215 34.8204 25.963 34.7614 26.0272C34.6381 26.0325 34.5523 26.0485 34.504 26.0752C34.5683 26.1343 34.5628 26.224 34.4877 26.3446C34.4474 26.4142 34.3844 26.4571 34.2986 26.4731C34.4137 26.567 34.4444 26.7077 34.3907 26.8953L34.286 27.0479L34.0928 27.297C34.0928 27.297 34.0686 27.3104 34.0204 27.3372C33.9453 27.3156 33.8448 27.3477 33.7188 27.4334C33.7455 27.4816 33.8245 27.5246 33.9558 27.5622L33.9273 27.9803C33.9139 27.9562 33.8321 28.0647 33.6817 28.3057C33.6522 28.3379 33.62 28.3794 33.5851 28.4303C33.5744 28.4678 33.5582 28.524 33.5367 28.5991L33.5084 28.8041C33.4843 28.8175 33.4561 28.8804 33.4238 28.993C33.3969 29.0867 33.3499 29.2153 33.2827 29.3788C33.2719 29.4163 33.2545 29.4417 33.2304 29.4551C33.2142 29.5114 33.1109 29.6238 32.9205 29.7925C32.9339 29.8167 32.9325 29.8569 32.9163 29.9131C32.8761 29.9828 32.7835 30.0577 32.6387 30.138C32.6146 30.1514 32.5931 30.1554 32.5744 30.15C32.6574 30.2144 32.7364 30.3284 32.8113 30.4919C32.8005 30.5295 32.7469 30.575 32.6503 30.6285C32.5189 30.7329 32.4532 30.7851 32.4532 30.7851C32.4933 30.8575 32.5147 30.9245 32.5173 30.9862C32.485 31.0987 32.3563 31.1937 32.1311 31.2712L32.0986 31.5969C32.0583 31.6665 31.9872 31.8085 31.8851 32.0228C31.8796 32.1836 31.8178 32.3993 31.6996 32.6699C31.6942 32.6887 31.658 32.7087 31.591 32.7301C31.4998 32.7649 31.4489 32.801 31.4381 32.8385C31.5104 32.9404 31.5544 33.1053 31.5703 33.3331C31.4738 33.3866 31.3933 33.4549 31.3289 33.5379L31.2443 33.7268C31.2201 33.7402 31.1759 33.7884 31.1115 33.8714L30.9421 34.4622C30.8617 34.4595 30.7853 34.4782 30.7128 34.5183C30.576 34.6415 30.4969 34.7405 30.4754 34.8156C30.5263 34.8505 30.561 34.9416 30.5796 35.0891L30.4547 35.4186C30.3983 35.5445 30.3473 35.6517 30.3016 35.7401C30.2747 35.8339 30.2559 35.8995 30.2451 35.937L30.0761 36.1017L30.0358 36.2424C30.0143 36.3174 29.9847 36.4206 29.947 36.5518C29.9094 36.6831 29.8516 36.8493 29.7737 37.0502C29.7254 37.077 29.6598 37.0581 29.5768 36.9937C29.5285 37.0205 29.5044 37.0339 29.5044 37.0339L29.4919 37.3957C29.4944 37.5994 29.4876 37.7294 29.4715 37.7856L29.4553 37.8419C29.4177 37.9732 29.3426 38.0227 29.2301 37.9904L29.1618 37.91C29.1297 37.8804 29.0948 37.8603 29.0573 37.8496C28.9769 37.8468 28.8898 37.832 28.796 37.8051C28.721 37.7836 28.6179 37.754 28.4866 37.7163L28.4102 37.664L28.3258 37.6398L27.9559 37.6555C27.9184 37.6448 27.818 37.5348 27.6547 37.3256C27.5582 37.3791 27.4362 37.4152 27.2888 37.4338L26.9874 37.3169C26.899 37.2713 26.8266 37.2404 26.7704 37.2242C26.7328 37.2135 26.7047 37.2054 26.686 37.2L26.4367 37.2199ZM34.6847 22.0471C34.6901 22.0283 34.733 22.0203 34.8134 22.0231L34.6326 21.9103L34.5321 21.9424L34.6847 22.0471ZM33.1127 22.1139L33.1047 22.142L33.1127 22.1139ZM34.5222 23.8882C34.6347 23.9205 34.7044 23.8897 34.7313 23.7959L34.7154 23.6391C34.7369 23.5641 34.741 23.5145 34.7276 23.4904C34.6741 23.3939 34.6031 23.3228 34.5147 23.2771C34.5013 23.253 34.488 23.2288 34.4746 23.2047C34.4853 23.1672 34.4746 23.1337 34.4425 23.1042C34.4291 23.08 34.4037 23.0626 34.3662 23.0518C34.2054 23.0463 34.1061 23.1092 34.0685 23.2405C34.0791 23.345 34.1099 23.4148 34.1608 23.4496C34.2813 23.5248 34.3416 23.5624 34.3416 23.5624L34.3213 23.7393C34.3052 23.7955 34.3721 23.8452 34.5222 23.8882ZM28.9759 21.9934C28.9867 21.9559 28.9787 21.913 28.9519 21.8647C28.9439 21.8218 28.9037 21.8204 28.8313 21.8606C28.8527 21.9276 28.9009 21.9719 28.9759 21.9934ZM28.3448 21.9646L28.2322 21.9324L28.3044 22.1053L28.3448 21.9646ZM33.3403 23.7624C33.3912 23.7973 33.4582 23.776 33.5414 23.6983C33.528 23.6742 33.4932 23.654 33.4369 23.6379C33.3994 23.6272 33.3672 23.6687 33.3403 23.7624ZM35.0685 24.3189L35.149 24.2506L35.0927 24.2345L35.0404 24.3108L35.0685 24.3189ZM32.4036 23.7374L32.3955 23.7656L32.4036 23.7374ZM34.9831 25.3601L35.0152 25.4606C35.0367 25.3856 35.0622 25.332 35.0917 25.2999C35.0488 25.3079 35.0126 25.3279 34.9831 25.3601ZM33.2909 24.9966C33.3418 25.0315 33.4088 25.0102 33.492 24.9325C33.4786 24.9084 33.4438 24.8882 33.3875 24.8721C33.35 24.8613 33.3178 24.9029 33.2909 24.9966ZM27.5791 28.1391L27.7601 28.0388C27.7173 27.9047 27.6678 27.8296 27.6115 27.8135C27.5365 27.792 27.4882 27.8187 27.4667 27.8938C27.472 28.017 27.5094 28.0988 27.5791 28.1391ZM27.2174 27.9136C27.2362 27.919 27.2697 27.9083 27.318 27.8815L27.2174 27.9136ZM30.8387 28.9824L30.8549 28.9262L30.7423 28.8939L30.7262 28.9502L30.8387 28.9824ZM30.4401 29.6293L30.5206 29.5611C30.4751 29.5074 30.4188 29.4913 30.3518 29.5127C30.3919 29.5851 30.4213 29.624 30.4401 29.6293ZM32.0272 30.5716C32.0567 30.5395 32.0581 30.4993 32.0314 30.451C32.018 30.4269 31.9684 30.4228 31.8826 30.4388C31.904 30.5058 31.9522 30.5501 32.0272 30.5716ZM27.6742 29.5061L27.811 29.454C27.8164 29.4352 27.7789 29.4244 27.6985 29.4217C27.6743 29.4351 27.6662 29.4632 27.6742 29.5061ZM27.9554 29.7998C28.0063 29.8347 28.0733 29.8134 28.1565 29.7357C28.1297 29.6874 28.0922 29.6767 28.0439 29.7034C27.9957 29.7302 27.9661 29.7623 27.9554 29.7998ZM30.2203 32.5197C30.2364 32.4635 30.2311 32.4112 30.2043 32.3629C30.1776 32.3147 30.1347 32.3227 30.0756 32.3869C30.0595 32.4432 30.1077 32.4875 30.2203 32.5197ZM28.315 32.1561C28.4356 32.0892 28.5014 32.037 28.5121 31.9995C28.4854 31.9512 28.472 31.9271 28.472 31.9271L28.2428 31.9831L28.2105 32.0957L28.315 32.1561ZM28.0932 32.8233C28.1844 32.7885 28.238 32.743 28.2542 32.6867L28.1216 32.6182C28.025 32.6718 27.9687 32.7266 27.9525 32.7829L28.0932 32.8233ZM29.9931 34.586C30.044 34.6208 30.1111 34.5995 30.1942 34.5218C30.1675 34.4736 30.13 34.4628 30.0817 34.4896C30.0334 34.5163 30.0039 34.5484 29.9931 34.586ZM27.8949 34.2583C27.919 34.2449 27.9364 34.2195 27.9472 34.182C27.9633 34.1257 27.9245 34.0841 27.8307 34.0572C27.8012 34.0894 27.8226 34.1564 27.8949 34.2583ZM28.9396 34.8624C28.9771 34.8731 29.0387 34.8705 29.1245 34.8545L29.1648 34.7138C29.1006 34.6548 29.0497 34.6199 29.0122 34.6091C28.9747 34.5984 28.913 34.601 28.8272 34.617L28.7869 34.7577C28.8512 34.8167 28.902 34.8516 28.9396 34.8624ZM28.5085 35.8349C28.5192 35.7973 28.5112 35.7545 28.4845 35.7062C28.4765 35.6633 28.4363 35.6619 28.3639 35.7021C28.3477 35.7583 28.3959 35.8026 28.5085 35.8349ZM27.2975 36.7664C27.3832 36.7504 27.4382 36.7357 27.4623 36.7224C27.4731 36.6848 27.4838 36.6473 27.4946 36.6098C27.5241 36.5777 27.559 36.5268 27.5993 36.4571L27.712 36.2763C27.7417 36.1021 27.6721 35.9909 27.5033 35.9424C27.4283 35.9209 27.3666 35.9236 27.3183 35.9503L27.278 36.091L27.3945 36.2157C27.3945 36.2157 27.3596 36.2666 27.2898 36.3684L27.1971 36.5854C27.2077 36.6899 27.2412 36.7503 27.2975 36.7664ZM35.0812 39.9118L34.9246 39.7147L34.804 39.7105C34.7611 39.7185 34.7116 39.7145 34.6553 39.6983L34.4625 39.5213C34.3527 39.4086 34.2791 39.3469 34.2415 39.3361C34.1853 39.32 34.137 39.3467 34.0967 39.4164C34.0002 39.4699 33.9265 39.4792 33.8756 39.4443L33.7711 39.3839C33.7202 39.349 33.6667 39.3235 33.6104 39.3074L33.4536 39.3233C33.3732 39.3205 33.3169 39.3044 33.2848 39.2749C33.2848 39.2749 33.2339 39.24 33.1321 39.1702L32.9875 39.0374C32.9875 39.0374 32.8682 39.0641 32.6296 39.1175L32.4889 39.0771L32.4569 38.9766L32.6623 38.5788C32.7079 38.4904 32.763 38.4047 32.8274 38.3216C32.8971 38.2199 32.9602 38.106 33.0166 37.9801L32.9726 37.8152C32.97 37.7536 32.9553 37.6986 32.9285 37.6503C32.9205 37.6075 32.9219 37.5673 32.9326 37.5297L33.1943 37.1481C33.2401 36.9176 33.3369 36.58 33.4848 36.1352C33.616 36.1729 33.7554 36.1824 33.9028 36.1638C33.9136 36.1262 33.8641 36.0512 33.7543 35.9385L33.5615 35.7614L33.7787 35.641L33.8513 35.3878C33.8112 35.3154 33.7898 35.2484 33.7872 35.1867L33.872 34.7848C33.9553 34.5651 34.0734 34.3655 34.2263 34.1861L34.3389 34.2183C34.3764 34.2291 34.4234 34.1715 34.4798 34.0456C34.512 33.9331 34.5215 33.8647 34.5081 33.8406C34.484 33.854 34.4344 33.8499 34.3594 33.8284L34.3114 33.571C34.3303 33.4344 34.3411 33.3258 34.3438 33.2454C34.3707 33.1517 34.4043 33.0699 34.4446 33.0003C34.4822 32.869 34.5976 32.7498 34.7907 32.6428C34.8256 32.5919 34.8511 32.5383 34.8672 32.4821C34.8833 32.4258 34.8968 32.3789 34.9075 32.3414C34.9506 32.1914 34.9466 32.0989 34.8957 32.064L35.3713 30.8302C35.3018 30.6479 35.2805 30.5098 35.3074 30.4161L35.5695 29.6082L36.0448 28.5875C36.0502 28.5688 36.0195 28.499 35.9526 28.3784C36.0599 28.2873 36.1243 28.2043 36.1458 28.1293L36.3715 27.5546C36.3635 27.5117 36.3649 27.4715 36.3756 27.434C36.3917 27.3777 36.4012 27.3094 36.4039 27.229L36.5409 26.9638C36.565 26.9504 36.5985 26.9397 36.6414 26.9317C36.6843 26.9237 36.7272 26.9157 36.7701 26.9077C36.8237 26.8622 36.8037 26.826 36.7099 26.7991L36.5692 26.7588C36.5934 26.7454 36.6336 26.6757 36.69 26.5498C36.6928 26.4694 36.7049 26.3917 36.7264 26.3167C36.7533 26.2229 36.7829 26.1197 36.8152 26.0072C36.8608 25.9188 36.8917 25.8465 36.9079 25.7902C36.9481 25.7206 36.9736 25.667 36.9844 25.6295C37.022 25.4982 37.0422 25.3923 37.045 25.3119C37.0665 25.2369 37.0893 25.1927 37.1135 25.1793L37.2664 25.0709L37.166 24.8899C37.1526 24.8658 37.1648 24.788 37.2024 24.6568L37.5125 24.1063C37.5045 24.0634 37.5193 23.9763 37.557 23.845L37.6898 23.7004C37.6818 23.6575 37.6644 23.6119 37.6377 23.5636C37.635 23.502 37.6351 23.431 37.6379 23.3506C37.6432 23.3318 37.6701 23.3091 37.7183 23.2823C37.7666 23.2555 37.7961 23.2234 37.8069 23.1859L37.8515 22.7115C37.8757 22.6982 37.9079 22.6567 37.9482 22.587C37.9402 22.5441 37.9282 22.4798 37.9122 22.394L37.9767 22.1689L38.2299 22.2415L38.4146 22.4467L38.9531 22.6925C38.9477 22.7112 38.8954 22.7876 38.7961 22.9215C38.8229 22.9698 38.8698 22.9832 38.9368 22.9618C38.9663 22.9297 38.9811 22.8426 38.9813 22.7006C39.0295 22.6738 39.1381 22.6846 39.3069 22.733C39.4382 22.7707 39.536 22.819 39.6002 22.878L39.8737 22.7738C39.8496 22.7872 39.883 22.8475 39.974 22.9548C40.0758 23.0246 40.183 23.0756 40.2955 23.1079L40.3961 23.0758C40.4202 23.0624 40.451 23.0611 40.4885 23.0719L40.7055 23.1645C40.743 23.1753 40.7779 23.1954 40.81 23.2249C40.8421 23.2545 40.8676 23.2719 40.8863 23.2773L41.015 23.2533C41.1008 23.2373 41.1437 23.2293 41.1437 23.2293C41.3312 23.2831 41.3901 23.3608 41.3204 23.4626L41.1592 23.8122C41.1109 23.839 41.0546 23.8939 40.9902 23.9769C40.9661 23.9903 40.9432 24.0345 40.9217 24.1095C40.8841 24.2408 40.8532 24.3131 40.8291 24.3265C40.7004 24.3505 40.6334 24.3719 40.628 24.3907C40.6012 24.3424 40.5718 24.3035 40.5396 24.274L40.4592 24.3423C40.435 24.3556 40.4484 24.3798 40.4993 24.4147C40.5181 24.42 40.5395 24.416 40.5636 24.4027C40.569 24.3839 40.5784 24.3866 40.5918 24.4107L40.8047 24.624L40.4741 25.5644C40.3213 25.6018 40.1831 25.7652 40.0595 26.0545C40.113 26.1511 40.1679 26.2074 40.2242 26.2235C40.243 26.2289 40.2644 26.2249 40.2885 26.2115C40.2939 26.1928 40.306 26.1861 40.3247 26.1915C40.3623 26.2022 40.4145 26.2679 40.4813 26.3886C40.3928 26.485 40.3084 26.4608 40.2281 26.316L40.0792 26.5169C39.9934 26.5329 39.9237 26.5636 39.87 26.6091C39.8216 26.778 39.8644 26.912 39.9983 27.0113C39.9662 26.9818 39.9072 27.0461 39.8212 27.2041C39.9043 27.2685 39.9323 27.3476 39.9054 27.4414C39.8893 27.4977 39.8209 27.5592 39.7002 27.6261L39.7242 27.7548L39.6638 27.8593C39.6692 27.8405 39.6277 27.8083 39.5393 27.7627C39.5393 27.7627 39.4789 27.7961 39.3583 27.863C39.3154 27.871 39.2631 27.8763 39.2015 27.8789C39.1398 27.8816 39.0567 27.8882 38.9522 27.8988C38.9736 27.9658 39.0124 28.0074 39.0687 28.0235L39.1812 28.0558C39.1704 28.0933 39.1784 28.1362 39.2052 28.1845C39.1757 28.2166 39.1448 28.2889 39.1125 28.4015C39.1955 28.4659 39.2678 28.5678 39.3293 28.7072C39.3319 28.7689 39.3117 28.8747 39.2687 29.0248C39.2016 29.1882 39.1438 29.2833 39.0956 29.3101C39.0661 29.3422 39.0459 29.377 39.0352 29.4145L39.0025 29.9532C38.9997 30.0336 38.9822 30.1301 38.95 30.2426C38.9284 30.3177 38.9002 30.3806 38.8653 30.4315C38.8546 30.469 38.8345 30.5038 38.8049 30.536C38.8236 30.6834 38.8248 30.7853 38.8087 30.8415L38.4949 31.0865C38.4653 31.1186 38.4371 31.1816 38.4102 31.2753C38.429 31.2807 38.4477 31.3571 38.4663 31.5045C38.4823 31.5903 38.4822 31.6614 38.4661 31.7176C38.4392 31.8114 38.3614 31.8703 38.2328 31.8943C38.222 31.9318 38.2179 31.9814 38.2206 32.043C38.2232 32.1047 38.2204 32.1851 38.2123 32.2842L38.196 32.5536C38.1718 32.567 38.145 32.5897 38.1155 32.6219C38.1047 32.6594 38.0752 32.6915 38.0269 32.7183L38.0025 33.0157C37.9784 33.0291 37.9395 33.0586 37.8859 33.1041C37.8376 33.1308 37.7866 33.167 37.733 33.2125C37.6981 33.2634 37.6591 33.3638 37.6161 33.5139C37.5946 33.5889 37.5985 33.6814 37.6279 33.7913L37.5675 33.8958C37.5996 33.9253 37.5969 34.0057 37.5592 34.137L37.4866 34.3902C37.5052 34.5376 37.5212 34.6234 37.5346 34.6475L37.2007 34.8563C37.2329 34.8858 37.265 34.9153 37.2971 34.9448C37.3293 34.9743 37.3681 35.0159 37.4136 35.0696C37.3331 35.2089 37.2485 35.3267 37.16 35.4231C37.0232 35.5463 36.9494 35.6266 36.9387 35.6641L36.8735 36.5284C36.8494 36.5418 36.8252 36.5552 36.8011 36.5686C36.777 36.5819 36.7501 36.6047 36.7206 36.6368L36.5392 37.1633C36.5151 37.1767 36.4601 37.1914 36.3743 37.2074C36.3474 37.3012 36.3849 37.3829 36.4867 37.4527C36.3821 37.4633 36.3218 37.4968 36.3057 37.5531L36.2895 37.6093C36.2626 37.7031 36.2786 37.7889 36.3375 37.8667C36.4044 37.9873 36.4298 38.0758 36.4137 38.1321L36.2165 38.2887L36.1278 38.5982L36.0715 38.582C35.959 38.5498 35.8169 38.5496 35.6454 38.5816L35.7256 38.7264L35.7819 38.7426C35.9882 38.8017 36.0416 39.0403 35.942 39.4583L35.7732 39.4099C35.7465 39.3617 35.6553 39.3964 35.4997 39.5142C35.4997 39.5142 35.5225 39.541 35.568 39.5947L35.7529 39.5868L35.7405 39.9486C35.4752 39.9537 35.3519 39.959 35.3707 39.9644L35.3988 39.9724C35.3988 39.9724 35.3894 39.9697 35.3707 39.9644L35.238 39.8959C35.1818 39.8797 35.1295 39.8851 35.0812 39.9118ZM39.3977 24.4337C39.4486 24.4686 39.5129 24.4566 39.5907 24.3977C39.5774 24.3736 39.5519 24.3561 39.5144 24.3454C39.4581 24.3292 39.4192 24.3587 39.3977 24.4337ZM39.4809 25.7364L39.5734 25.7324L39.7143 25.5597C39.8 25.5437 39.8791 25.5156 39.9515 25.4755L39.8797 24.8764C39.7993 24.8736 39.735 24.8856 39.6867 24.9124L39.6625 24.9968C39.641 25.0718 39.6007 25.1415 39.5417 25.2057C39.4506 25.2405 39.342 25.3007 39.2159 25.3864C39.28 25.5874 39.3684 25.7041 39.4809 25.7364ZM38.8009 26.3026C38.8358 26.2517 38.8399 26.2021 38.8131 26.1538C38.8051 26.111 38.7649 26.1096 38.6925 26.1497C38.6818 26.1872 38.7179 26.2382 38.8009 26.3026ZM38.495 26.7325L38.4064 26.8289C38.4306 26.8155 38.452 26.8115 38.4708 26.8169L38.4989 26.8249C38.5097 26.7874 38.5084 26.7566 38.495 26.7325ZM36.5692 26.7588C36.5638 26.7775 36.5638 26.7775 36.5692 26.7588V26.7588ZM37.031 27.3783C37.0631 27.4079 37.1033 27.4092 37.1516 27.3825C37.1998 27.3557 37.2012 27.3155 37.1557 27.2619C37.0994 27.2457 37.0579 27.2846 37.031 27.3783ZM37.8088 29.5501C37.8384 29.5179 37.8397 29.4777 37.813 29.4294C37.805 29.3866 37.7648 29.3852 37.6924 29.4253C37.6762 29.4816 37.7151 29.5232 37.8088 29.5501ZM36.5066 29.2071C36.5307 29.1937 36.5535 29.1495 36.5751 29.0745L36.4625 29.0422C36.4438 29.0368 36.4478 29.0583 36.4745 29.1065C36.5013 29.1548 36.512 29.1883 36.5066 29.2071ZM36.2801 30.6341C36.3042 30.6207 36.3217 30.5953 36.3324 30.5577C36.3486 30.5015 36.3164 30.472 36.236 30.4692C36.1878 30.496 36.2024 30.5509 36.2801 30.6341ZM36.5155 32.4676L36.5478 32.355C36.5398 32.3121 36.5117 32.3041 36.4634 32.3308L36.5155 32.4676ZM36.2528 33.9146C36.3011 33.8879 36.3279 33.8651 36.3333 33.8464C36.3495 33.7901 36.3106 33.7485 36.2168 33.7216C36.182 33.7725 36.194 33.8368 36.2528 33.9146ZM35.1995 33.9779L35.4367 33.8937C35.4261 33.7892 35.3753 33.6833 35.2843 33.576C35.1584 33.5196 35.0846 33.5289 35.0631 33.6039C35.0309 33.7165 35.0763 33.8411 35.1995 33.9779ZM37.5427 34.6194C37.5373 34.6382 37.5346 34.6475 37.5346 34.6475L37.5427 34.6194ZM33.7053 36.7465C33.7562 36.7814 33.8232 36.76 33.9064 36.6824C33.893 36.6582 33.8675 36.6408 33.83 36.63C33.7738 36.6139 33.7322 36.6527 33.7053 36.7465ZM34.9979 38.8222C35.014 38.766 35.0154 38.7258 35.002 38.7016C34.9886 38.6775 34.939 38.6734 34.8532 38.6894C34.8371 38.7457 34.8853 38.79 34.9979 38.8222ZM33.1447 38.5953C33.1555 38.5578 33.1475 38.5149 33.1207 38.4667C33.0939 38.4184 33.0564 38.4076 33.0082 38.4344C32.9974 38.4719 33.0429 38.5255 33.1447 38.5953ZM40.6882 41.3369L40.64 41.2926L40.0773 41.1313C40.0585 41.1259 40.021 41.1151 39.9648 41.099C39.9272 41.0882 39.883 41.0654 39.8321 41.0305C39.7866 40.9769 39.7103 40.9245 39.6031 40.8735L38.9238 40.8005C38.8086 40.7066 38.6559 40.6019 38.4658 40.4865L37.8708 40.4377C37.7315 40.3571 37.6391 40.29 37.5936 40.2364L37.5897 40.1439L38.8273 36.5711C39.0875 36.3006 39.2284 36.1279 39.2499 36.0528C39.2607 36.0153 39.2714 35.9778 39.2822 35.9403C39.293 35.9028 39.297 35.8532 39.2944 35.7916C39.2945 35.6495 39.312 35.553 39.3469 35.5021C39.3738 35.4084 39.4342 35.3039 39.5282 35.1887L39.6771 34.9879L39.6777 34.3486L39.8347 34.1196C39.8642 34.0875 39.8991 34.0366 39.9394 33.9669C39.9797 33.8973 40.0253 33.8089 40.0763 33.7017L40.3982 33.4287L40.1733 33.151L40.2942 32.9421L40.3022 32.914C40.3237 32.8389 40.3077 32.7532 40.2542 32.6566L40.3146 32.5522C40.3575 32.5442 40.4098 32.5388 40.4714 32.5362C40.5385 32.5148 40.6176 32.4868 40.7087 32.452L40.773 32.44C40.6151 32.2121 40.5442 32.0699 40.5604 32.0137L40.7294 31.849C40.7348 31.8302 40.6893 31.7766 40.5929 31.6881L40.6897 31.3504C40.7004 31.3129 40.7112 31.2754 40.7219 31.2379C40.7514 31.2058 40.7836 31.1643 40.8185 31.1134C40.8722 31.0679 40.9459 31.0585 41.0397 31.0854L41.1121 31.0453C41.1208 30.3779 41.1385 29.9974 41.1654 29.9036L41.2701 29.7509L41.3828 29.5701L41.532 29.1562C41.5561 29.1428 41.5803 29.1294 41.6044 29.116C41.6527 29.0893 41.7103 29.0652 41.7773 29.0438L41.6249 28.7261C41.633 28.6269 41.6572 28.5425 41.6975 28.4729C41.7219 28.1754 41.7529 27.961 41.7906 27.8297C41.8067 27.7734 41.8389 27.7319 41.8872 27.7052C41.9059 27.7105 41.9287 27.7374 41.9554 27.7856C41.9957 27.716 42.0239 27.653 42.04 27.5968C42.0749 27.5459 42.0951 27.511 42.1004 27.4923C42.1086 27.3931 42.1153 27.3342 42.1207 27.3154C42.1315 27.2779 42.1221 27.2752 42.0926 27.3073L42.4229 26.58C42.4525 26.5478 42.482 26.5157 42.5115 26.4836C42.541 26.4514 42.5705 26.4193 42.6 26.3872L42.5802 26.1379C42.5428 25.9851 42.5268 25.8993 42.5322 25.8806C42.5375 25.8618 42.6194 25.7533 42.7777 25.5551L43.0713 25.4871C43.0311 25.4147 42.9548 25.3623 42.8422 25.3301C42.8584 25.2738 42.8651 25.2148 42.8625 25.1532C42.8786 25.0969 42.8948 25.0407 42.9109 24.9844C43.0023 24.6655 43.0763 24.4431 43.1327 24.3172C43.1945 24.1726 43.2267 24.131 43.2293 24.1927L43.2133 24.0359C43.2053 23.993 43.2094 23.9434 43.2255 23.8871C43.2793 23.6996 43.4697 23.673 43.7965 23.8073L43.9492 23.912C44.0268 23.9951 44.075 24.0394 44.0938 24.0448L44.2225 24.0208C44.2653 24.0128 44.3149 24.0168 44.3712 24.033C44.4113 24.1054 44.4542 24.1684 44.4997 24.222C44.6979 24.3804 44.8345 24.4703 44.9095 24.4918C44.947 24.5025 44.998 24.4664 45.0624 24.3834C45.1428 24.3861 45.2111 24.3956 45.2674 24.4117C45.329 24.4091 45.3947 24.4279 45.4643 24.4682C45.5018 24.479 45.562 24.5876 45.6449 24.794C45.7037 25.0138 45.7424 25.1265 45.7612 25.1318C45.7612 25.1318 45.8859 25.0864 46.1352 24.9955C46.347 24.8939 46.4596 24.8551 46.473 24.8792L46.6619 24.9638C46.6806 24.9692 46.7262 24.9518 46.7986 24.9117C46.8844 24.8957 46.9367 24.8904 46.9554 24.8958C47.0305 24.9173 47.0612 24.987 47.0477 25.1049C47.0342 25.2228 47.1091 25.3154 47.2726 25.3825L47.357 25.4067C47.416 25.3425 47.4509 25.2916 47.4617 25.2541L47.5742 25.2863L48.3417 25.6891C48.4355 25.716 48.481 25.7696 48.4782 25.85L48.5062 26.0712C48.8118 25.9964 48.9458 25.9537 48.9083 25.9429C48.9538 25.9966 49.0288 26.0891 49.1332 26.2205L49.4305 26.458C49.4893 26.5358 49.508 26.6122 49.4865 26.6872C49.4704 26.7435 49.4449 26.7971 49.41 26.848L49.3134 26.9725C49.2811 27.085 49.4177 27.175 49.7232 27.2423L50.0889 27.3471C50.0836 27.3659 50.0728 27.4034 50.0567 27.4597C50.0647 27.5026 50.07 27.5548 50.0726 27.6165C50.1047 27.646 50.1248 27.6822 50.1328 27.7251C50.1596 27.7733 50.1863 27.8216 50.2131 27.8699C50.3173 28.1434 50.3614 28.3082 50.3453 28.3645C50.3291 28.4208 50.2969 28.4623 50.2487 28.489L50.2607 28.5534C50.2687 28.5963 50.2673 28.6365 50.2565 28.674L49.9789 28.8989C49.9359 29.0489 50.0537 29.2045 50.3323 29.3656L50.288 29.4138C50.2932 29.5371 50.277 29.6643 50.2394 29.7956L50.2915 29.9324L50.235 30.1293L50.259 30.258L50.0131 31.0096C49.9165 31.0631 49.824 31.138 49.7355 31.2344C49.7301 31.2532 49.7327 31.3148 49.7433 31.4194C49.7995 31.5776 49.7792 31.7544 49.6825 31.95L49.3604 32.4361C49.3497 32.4737 49.3335 32.5299 49.312 32.605C49.2905 32.68 49.2569 32.7617 49.2113 32.8501C49.1308 32.9894 49.0033 33.1863 48.8288 33.4407L48.6116 33.5611C48.5953 33.7594 48.551 33.8787 48.4786 33.9188C48.4008 33.9777 48.3592 34.0165 48.3538 34.0353C48.3028 34.1424 48.2799 34.2577 48.2852 34.381L47.8789 34.6298C47.8681 34.6673 47.848 34.7022 47.8185 34.7343C47.781 34.7235 47.7006 34.7208 47.5773 34.726C47.529 34.7528 47.4565 34.8639 47.3598 35.0595C47.3196 35.1292 47.2257 35.1733 47.0783 35.1919C46.9979 35.1891 46.9336 35.2011 46.8853 35.2279C46.8611 35.2413 46.837 35.2547 46.8129 35.268C46.7834 35.3002 46.6975 35.3872 46.5553 35.5291C46.5312 35.5425 46.2149 35.5837 45.6064 35.6528L45.2326 35.5761L44.714 35.5796C44.6818 35.5501 44.6149 35.5005 44.5131 35.4307L44.3362 35.4104C44.2746 35.413 44.225 35.409 44.1875 35.3982L43.854 35.1808L43.4562 34.9754L43.2874 34.927C43.1373 34.8839 42.9658 34.9159 42.7727 35.023L42.6314 35.6219C42.6019 35.654 42.5268 35.7035 42.4061 35.7704C42.406 35.9124 42.3898 36.0397 42.3575 36.1523C42.3306 36.2461 42.3064 36.3305 42.2849 36.4055C42.2473 36.5368 42.2137 36.6185 42.1842 36.6506L42.1114 37.1169C42.0095 37.1892 41.9531 37.2441 41.9424 37.2816L41.8331 37.981C41.6991 38.0238 41.6106 38.1202 41.5675 38.2702C41.5245 38.4203 41.5191 38.5101 41.5512 38.5396L41.5994 38.5838C41.1882 39.8056 40.8752 40.5786 40.6605 40.9027C40.6765 40.9885 40.7018 41.0769 40.7366 41.1681L40.6882 41.3369ZM43.8919 24.9612C43.9643 24.9211 43.9938 24.8889 43.9804 24.8648L43.8197 24.7883L43.7674 24.8646L43.8919 24.9612ZM43.5661 25.1418L43.6385 25.1017C43.6654 25.0079 43.6695 24.8873 43.6509 24.7399C43.5543 24.7934 43.4953 24.8576 43.4738 24.9327L43.4535 25.1095L43.5661 25.1418ZM46.1505 25.7915C46.2014 25.8264 46.2657 25.8144 46.3435 25.7555C46.3168 25.7073 46.2726 25.6844 46.2109 25.6871C46.1868 25.7004 46.1667 25.7353 46.1505 25.7915ZM48.0991 27.1724C48.1286 27.1402 48.1299 27.1 48.1032 27.0518C48.0764 27.0035 48.0389 26.9927 47.9907 27.0195C47.9691 27.0945 48.0053 27.1455 48.0991 27.1724ZM45.4296 27.1377L45.4739 27.0895C45.4712 27.0278 45.4418 26.9889 45.3855 26.9728C45.3265 27.037 45.2849 27.0759 45.2608 27.0892L45.4296 27.1377ZM43.5914 32.2739C43.5914 32.2739 43.6531 32.2712 43.7764 32.266L43.9051 32.242C43.9372 32.2715 44.0095 32.3024 44.1221 32.3347L44.4115 32.3872C44.524 32.4195 44.5816 32.4664 44.5842 32.5281C44.7075 32.5228 44.7879 32.5256 44.8254 32.5364L45.0344 32.6572C45.0719 32.6679 45.1362 32.6559 45.2274 32.6212C45.2998 32.581 45.3454 32.5637 45.3641 32.569C45.3641 32.569 45.3869 32.5959 45.4324 32.6495C45.4699 32.6603 45.5611 32.6255 45.7059 32.5452C45.8614 32.4275 45.97 32.3673 46.0317 32.3646C46.2197 31.9923 46.307 31.794 46.2936 31.7699L46.487 31.3077C46.5755 31.2113 46.6721 31.0868 46.7768 30.9341L46.8535 30.5603C46.8724 30.4236 46.8833 30.3151 46.886 30.2347C46.9129 30.1409 46.9344 30.0659 46.9506 30.0096C47.0605 29.9802 47.1691 29.92 47.2764 29.829C47.2979 29.754 47.2631 29.6628 47.1721 29.5555L46.9954 29.3222C47.0303 29.2713 47.0585 29.2083 47.08 29.1333C47.1338 28.9457 47.0844 28.7996 46.9317 28.6949C46.9505 28.7003 46.9625 28.6936 46.9679 28.6749C46.984 28.6186 46.9386 28.4939 46.8316 28.3009L46.659 27.9469C46.6215 27.9361 46.5961 27.9187 46.5827 27.8946C46.5103 27.9347 46.466 27.9829 46.4499 28.0392L46.1967 27.9666C46.1458 27.9317 46.0735 27.9008 45.9797 27.8739C45.5295 27.7448 45.2803 27.7647 45.2318 27.9335L45.2798 28.1908C45.2691 28.2283 45.1819 28.2845 45.0184 28.3594C45.0771 28.5793 45.0931 28.7361 45.0662 28.8299C44.9936 29.012 44.8609 29.0856 44.6679 29.0506C44.6732 29.1739 44.6959 29.2717 44.736 29.3441C44.7332 29.4245 44.713 29.5304 44.6754 29.6617C44.6431 29.7742 44.6055 29.9055 44.5625 30.0556L44.482 30.1238L44.4013 30.4052L44.3972 30.5258C44.3998 30.5874 44.3903 30.6558 44.3688 30.7308C44.3581 30.7683 44.3273 30.7696 44.2764 30.7347C44.3433 30.8554 44.2976 30.9438 44.1394 30.9999L44.1754 31.193C43.9931 31.2625 43.8939 31.3254 43.8777 31.3816L43.9017 31.5103L43.9297 31.7314C43.7071 31.8706 43.5823 31.9871 43.5554 32.0808L43.495 32.1853L43.5914 32.2739ZM42.4463 27.3479C42.5026 27.364 42.5469 27.3158 42.5791 27.2033C42.5416 27.1925 42.4987 27.2005 42.4505 27.2273C42.4263 27.2407 42.425 27.2809 42.4463 27.3479ZM48.74 29.6093C48.7641 29.5959 48.7816 29.5705 48.7923 29.5329C48.8085 29.4767 48.779 29.4378 48.704 29.4163C48.6691 29.4672 48.6811 29.5315 48.74 29.6093ZM43.0483 28.4339C43.1154 28.4126 43.1596 28.3644 43.1811 28.2893C43.149 28.2598 43.1088 28.2584 43.0605 28.2852C43.0364 28.2986 43.0323 28.3482 43.0483 28.4339ZM49.2338 30.3294L49.2981 30.3174C49.3169 30.3228 49.3383 30.3188 49.3625 30.3054L49.3304 30.2048C49.3063 30.2182 49.2915 30.2343 49.2861 30.253C49.2808 30.2718 49.2633 30.2972 49.2338 30.3294ZM48.5861 30.7831C48.6102 30.7697 48.6652 30.755 48.751 30.739C48.7376 30.7149 48.6907 30.7014 48.6103 30.6987L48.5861 30.7831ZM49.1358 31.9455L49.2162 31.8772C49.2029 31.8531 49.2096 31.7941 49.2365 31.7003C49.2125 31.5716 49.1349 31.4885 49.0036 31.4508L48.9473 31.4347C48.8723 31.4132 48.7865 31.4292 48.69 31.4827L48.6738 31.539C48.7997 31.5954 48.9537 31.7309 49.1358 31.9455ZM41.3887 31.8858C41.4182 31.8537 41.4196 31.8135 41.3928 31.7652C41.3848 31.7223 41.3446 31.7209 41.2722 31.7611C41.2561 31.8173 41.2949 31.8589 41.3887 31.8858ZM43.4663 32.8165C43.5172 32.8514 43.5668 32.8554 43.615 32.8287C43.6392 32.8153 43.6432 32.7657 43.6272 32.6799C43.5897 32.6692 43.5361 32.7147 43.4663 32.8165ZM47.1238 33.8652C47.1747 33.9001 47.239 33.8881 47.3168 33.8292C47.3034 33.8051 47.278 33.7877 47.2405 33.7769C47.1842 33.7608 47.1453 33.7902 47.1238 33.8652ZM44.5029 33.4487L44.4709 33.3481L44.4347 33.3682L44.4467 33.4325L44.5029 33.4487ZM44.8401 33.9716L44.9086 33.839L44.8685 33.7666L44.7359 33.6981L44.6273 33.7583C44.6406 33.7825 44.642 33.8133 44.6312 33.8508L44.8401 33.9716ZM41.8409 34.025C41.8785 34.0358 41.9093 34.0345 41.9334 34.0211L41.9737 33.8804L41.8291 33.7476C41.8908 33.745 41.9177 33.6512 41.9098 33.4663C41.9393 33.4342 41.9702 33.3618 42.0025 33.2493L41.5763 33.2489L41.536 33.3895C41.5065 33.4217 41.5359 33.5316 41.6241 33.7193C41.7312 33.9124 41.8034 34.0143 41.8409 34.025ZM44.787 34.9003L44.9037 34.8119L44.7711 34.7435L44.6825 34.8399C44.6959 34.864 44.7307 34.8841 44.787 34.9003ZM45.1608 34.977L45.2775 34.8887L45.0805 34.8322L45.1608 34.977ZM43.6413 34.7544C43.711 34.7947 43.7699 34.8015 43.8182 34.7747L43.7781 34.7023C43.6735 34.7129 43.628 34.7303 43.6413 34.7544ZM41.0427 36.3842L40.9825 36.2756C40.945 36.2648 40.9141 36.2662 40.89 36.2795L41.0427 36.3842ZM40.9136 36.8344C40.9431 36.8022 40.9445 36.762 40.9177 36.7138C40.9043 36.6896 40.8548 36.6856 40.769 36.7016C40.7529 36.7578 40.8011 36.8021 40.9136 36.8344ZM41.5808 37.0561C41.6049 37.0427 41.6277 36.9985 41.6492 36.9235L41.5367 36.8912C41.5501 36.9154 41.5648 36.9703 41.5808 37.0561ZM39.2357 38.3323C39.2598 38.319 39.284 38.3056 39.3081 38.2922C39.351 38.2842 39.3845 38.2735 39.4086 38.2601L39.264 38.1273L39.1916 38.1675C39.2076 38.2532 39.2223 38.3082 39.2357 38.3323ZM38.6811 38.1429C38.7078 38.1911 38.7453 38.2019 38.7936 38.1751L38.7897 38.0827C38.7709 38.0773 38.7347 38.0973 38.6811 38.1429ZM39.7887 40.2264C39.8182 40.1943 39.8196 40.1541 39.7928 40.1058C39.7794 40.0817 39.7299 40.0776 39.6441 40.0936C39.628 40.1499 39.6762 40.1942 39.7887 40.2264Z" fill="#052930"/>
<defs>
<linearGradient id="paint0_linear_11_876" x1="39.2794" y1="7.96491" x2="26.545" y2="52.3752" gradientUnits="userSpaceOnUse">
<stop offset="0.15" stop-color="#EB981A"/>
<stop offset="0.46" stop-color="#7B5418"/>
<stop offset="0.74" stop-color="#EB981A"/>
<stop offset="1" stop-color="#7B5418"/>
</linearGradient>
</defs>
</svg>
